<mxfile host="app.diagrams.net" agent="Mozilla/5.0 (Macintosh; Intel Mac OS X 10_15_7) AppleWebKit/605.1.15 (KHTML, like Gecko) Version/18.3 Safari/605.1.15" version="26.0.6">
  <diagram name="Page-1" id="6yZAkYJkuCoUYf4x6TMt">
    <mxGraphModel dx="1158" dy="816" grid="1" gridSize="10" guides="1" tooltips="1" connect="1" arrows="1" fold="1" page="1" pageScale="1" pageWidth="827" pageHeight="1169" math="0" shadow="0">
      <root>
        <mxCell id="0" />
        <mxCell id="1" parent="0" />
        <mxCell id="ESxeZGCER6Muz7yPkdNM-1" value="" style="shape=image;verticalLabelPosition=bottom;labelBackgroundColor=default;verticalAlign=top;aspect=fixed;imageAspect=0;editableCssRules=.*;image=data:image/svg+xml,PHN2ZyB4bWxuczp4bGluaz0iaHR0cDovL3d3dy53My5vcmcvMTk5OS94bGluayIgeG1sbnM9Imh0dHA6Ly93d3cudzMub3JnLzIwMDAvc3ZnIiBoZWlnaHQ9IjcyMCIgd2lkdGg9IjE1ODAiIHZpZXdCb3g9IjAgMCAxNTgwIDcyMCI+PGcgdHJhbnNmb3JtPSJ0cmFuc2xhdGUoLTEyMCAtMTAwKSI+PHBhdGggZmlsbD0iI2Y5ZmJlNyIgZD0iTTEyMCAxMDJhMiAyIDAgMCAxIDItMmg1MTZhMiAyIDAgMCAxIDIgMnY3MTZhMiAyIDAgMCAxLTIgMkgxMjJhMiAyIDAgMCAxLTItMnoiLz48dXNlIHRyYW5zZm9ybT0ibWF0cml4KDEsMCwwLDEsMTM2LDExNikgdHJhbnNsYXRlKDAgMTYuNjk5MjE4NzUpIiB4bGluazpocmVmPSIjYSIvPjxwYXRoIGZpbGw9IiNlM2YyZmQiIGQ9Ik02NDAgMTAyYTIgMiAwIDAgMSAyLTJoMTA1NmEyIDIgMCAwIDEgMiAydjcxNmEyIDIgMCAwIDEtMiAySDY0MmEyIDIgMCAwIDEtMi0yeiIvPjx1c2UgdHJhbnNmb3JtPSJtYXRyaXgoMSwwLDAsMSw2NTYsMTE2KSB0cmFuc2xhdGUoMCAxNi42OTkyMTg3NSkiIHhsaW5rOmhyZWY9IiNiIi8+PHBhdGggZmlsbD0iIzI5YWFlMSIgZD0iTTM4MCAyNjBoMTUwdjYzSDM4MHYtNjN6Ii8+PHBhdGggZmlsbD0iIzIxODhiNCIgZD0iTTM4OS45IDMyNy4wNmgxMzIuNzV2Mi44N0gzODkuOXYtMi44N3oiLz48cGF0aCBmaWxsPSIjZmZmIiBkPSJNNDg0LjI1IDI2OC45Nmg0MC42NXY0NC44N2gtNDAuNjV2LTQ0Ljg3eiIvPjxwYXRoIGZpbGw9IiM1NGJiZTciIGQ9Ik00ODYuMDUgMjcwLjNoMzcuMlYzMTJoLTM3LjJ2LTQxLjd6Ii8+PHBhdGggZmlsbD0iI2ZmZiIgZD0iTTM4Ny42NSAyNjguNGgyNy45djMwLjhoLTI3Ljl2LTMwLjh6TTQyNy4xIDI2OC40aDEzLjk1djE3LjIySDQyNy4xVjI2OC40ek00NTguMyAyNjguNGgxMi45djE3LjY0aC0xMi45VjI2OC40eiIvPjxwYXRoIGZpbGw9IiM1NGJiZTciIGQ9Ik00MjcuODUgMjY5LjI0SDQ0MHYxNS40aC0xMi4xNXYtMTUuNHpNNDU5LjUgMjY5LjUyaDEwLjh2MTUuNTRoLTEwLjh2LTE1LjU0eiIvPjxwYXRoIGZpbGw9IiNmZmYiIGQ9Ik00ODguMTUgMjc0LjU2SDQ5MXYzNC41aC0yLjg1di0zNC41ek00OTMuNTUgMjg1LjJoM3YyMy40NWgtM1YyODUuMnpNNDk4LjY1IDI4Ny42NWgzdjIxLjA3aC0zdi0yMS4wN3pNNTEwLjM1IDI4Ny4zN2gyLjF2MjEuOWgtMi4xdi0yMS45ek01MTMuNjUgMjgwLjg2aDIuMjV2MjguNWgtMi4yNXYtMjguNXpNNTE4LjQ1IDI3NS4yNmgyLjg1djMzLjhoLTIuODV2LTMzLjh6TTUwNC4yIDI4Ni41M2gzdjIyLjRoLTN2LTIyLjR6Ii8+PHVzZSB0cmFuc2Zvcm09Im1hdHJpeCgxLDAsMCwxLDM1MCwzMzApIHRyYW5zbGF0ZSg3NC4xOTc1MzA4NjQxOTc1MyAxOC4xMTExMTExMTExMTExMTQpIiB4bGluazpocmVmPSIjYyIvPjx1c2UgdHJhbnNmb3JtPSJtYXRyaXgoMSwwLDAsMSwzNTAsMzMwKSB0cmFuc2xhdGUoMzcuMDk4NzY1NDMyMDk4NzYgNDQuNzc3Nzc3Nzc3Nzc3Nzg2KSIgeGxpbms6aHJlZj0iI2QiLz48cGF0aCBmaWxsPSIjMjlhYWUxIiBkPSJNMzgwIDU0MGgxNTB2NjNIMzgwdi02M3oiLz48cGF0aCBmaWxsPSIjMjE4OGI0IiBkPSJNMzg5LjkgNjA3LjA2aDEzMi43NXYyLjg3SDM4OS45di0yLjg3eiIvPjxwYXRoIGZpbGw9IiNmZmYiIGQ9Ik00ODQuMjUgNTQ4Ljk2aDQwLjY1djQ0Ljg3aC00MC42NXYtNDQuODd6Ii8+PHBhdGggZmlsbD0iIzU0YmJlNyIgZD0iTTQ4Ni4wNSA1NTAuM2gzNy4yVjU5MmgtMzcuMnYtNDEuN3oiLz48cGF0aCBmaWxsPSIjZmZmIiBkPSJNMzg3LjY1IDU0OC40aDI3Ljl2MzAuOGgtMjcuOXYtMzAuOHpNNDI3LjEgNTQ4LjRoMTMuOTV2MTcuMjJINDI3LjFWNTQ4LjR6TTQ1OC4zIDU0OC40aDEyLjl2MTcuNjRoLTEyLjlWNTQ4LjR6Ii8+PHBhdGggZmlsbD0iIzU0YmJlNyIgZD0iTTQyNy44NSA1NDkuMjRINDQwdjE1LjRoLTEyLjE1di0xNS40ek00NTkuNSA1NDkuNTJoMTAuOHYxNS41NGgtMTAuOHYtMTUuNTR6Ii8+PHBhdGggZmlsbD0iI2ZmZiIgZD0iTTQ4OC4xNSA1NTQuNTZINDkxdjM0LjVoLTIuODV2LTM0LjV6TTQ5My41NSA1NjUuMmgzdjIzLjQ1aC0zVjU2NS4yek00OTguNjUgNTY3LjY1aDN2MjEuMDdoLTN2LTIxLjA3ek01MTAuMzUgNTY3LjM3aDIuMXYyMS45aC0yLjF2LTIxLjl6TTUxMy42NSA1NjAuODZoMi4yNXYyOC41aC0yLjI1di0yOC41ek01MTguNDUgNTU1LjI2aDIuODV2MzMuOGgtMi44NXYtMzMuOHpNNTA0LjIgNTY2LjUzaDN2MjIuNGgtM3YtMjIuNHoiLz48dXNlIHRyYW5zZm9ybT0ibWF0cml4KDEsMCwwLDEsMzUwLDYxMCkgdHJhbnNsYXRlKDc0LjE5NzUzMDg2NDE5NzUzIDE4LjExMTExMTExMTExMTExNCkiIHhsaW5rOmhyZWY9IiNlIi8+PHVzZSB0cmFuc2Zvcm09Im1hdHJpeCgxLDAsMCwxLDM1MCw2MTApIHRyYW5zbGF0ZSgzMC45MjU5MjU5MjU5MjU5MjQgNDQuNzc3Nzc3Nzc3Nzc3Nzg2KSIgeGxpbms6aHJlZj0iI2YiLz48cGF0aCBmaWxsPSIjN2ZiYTAwIiBzdHJva2Utb3BhY2l0eT0iMCIgc3Ryb2tlPSIjMDAwIiBkPSJNMTYwIDI2MGg1My45NnY3MEgxNjB2LTcweiIvPjxwYXRoIHN0cm9rZS1vcGFjaXR5PSIwIiBzdHJva2U9IiMwMDAiIGQ9Ik0xODEuNzMgMjY2Ljg4aDI1LjR2MTYuNjRoLTI1LjR2LTE2LjY0eiIvPjxwYXRoIGZpbGw9IiNmY2QxMTYiIHN0cm9rZS1vcGFjaXR5PSIwIiBzdHJva2U9IiMwMDAiIGQ9Ik0yMTMuOTYgMjY1LjM4SDIyMHYxMmgtNi4wNHYtMTJ6TTIxMy45NiAyODIuNTJIMjIwdjMxLjk1aC02LjA0di0zMS45NXoiLz48cGF0aCBzdHJva2Utb3BhY2l0eT0iMCIgc3Ryb2tlPSIjMDAwIiBkPSJNMTgzLjkgMzA0LjRoNC4zNXYxOC43NWgtNC4zNVYzMDQuNHpNMTc2Ljg2IDMwNC40aDQuMzZ2MTguNzVoLTQuMzZWMzA0LjR6Ii8+PHBhdGggZmlsbC1vcGFjaXR5PSIuMiIgc3Ryb2tlLW9wYWNpdHk9IjAiIHN0cm9rZT0iIzAwMCIgZD0iTTE3OS42NCAzMTIuM2gtOC4yNHYtMzUuNjNoMTEuMDZ2Mi45MmgtOC4yNHYyOS44aDUuNDJ2Mi45eiIvPjxwYXRoIGZpbGwtb3BhY2l0eT0iLjIiIHN0cm9rZS1vcGFjaXR5PSIwIiBzdHJva2U9IiMwMDAiIGQ9Ik0xNzYuODIgMzE5LjY1aC0xMS4wNVYyNzAuOGgxOC4xdjIuOTNIMTY4LjZ2NDNoOC4yMnYyLjkyek0yMDAuNDMgMzE2LjJoLTguMTR2LTI0LjIyaDYuMzV2LTEwLjkzaDIuODJ2MTMuODVoLTYuMzZ2MTguMzVoNS4zM3YyLjk1eiIvPjxwYXRoIGZpbGw9IiNlNWU1ZTUiIHN0cm9rZS1vcGFjaXR5PSIwIiBzdHJva2U9IiMwMDAiIGQ9Ik0xODYuODUgMjkzLjc1YzAgMS44OC0xLjQ3IDMuNC0zLjI3IDMuNHMtMy4yNi0xLjUyLTMuMjYtMy40IDEuNDYtMy40IDMuMjYtMy40YzEuOCAwIDMuMjcgMS41MiAzLjI3IDMuNHpNMjAwLjA2IDMwNS4yOGg1Ljh2MTcuM2gtNS44di0xNy4zeiIvPjx1c2UgdHJhbnNmb3JtPSJtYXRyaXgoMSwwLDAsMSwxMzAsMzM5KSB0cmFuc2xhdGUoMzUuMzA4NjQxOTc1MzA4NjQ2IDE3Ljc3Nzc3Nzc3Nzc3Nzc4KSIgeGxpbms6aHJlZj0iI2ciLz48cGF0aCBmaWxsPSJub25lIiBzdHJva2U9IiMzYTQxNGEiIGQ9Ik0yMjAuNSAyOTVoMTQzLjEyIi8+PHBhdGggZmlsbD0iIzNhNDE0YSIgc3Ryb2tlLXdpZHRoPSIuMDUiIHN0cm9rZT0iIzNhNDE0YSIgZD0iTTIyMC41IDI5NS40OGgtLjV2LS45NmguNXoiLz48cGF0aCBmaWxsPSIjM2E0MTRhIiBzdHJva2U9IiMzYTQxNGEiIGQ9Ik0zNzguMzggMjk1bC0xNC4yNiA0LjYzdi05LjI2eiIvPjxwYXRoIGZpbGw9IiMyMzJmM2UiIHN0cm9rZS1vcGFjaXR5PSIwIiBzdHJva2U9IiNmZmYiIGQ9Ik04MDQuOTcgMjQwaC00My4yNGMtLjk4IDAtMS43My0uOC0xLjczLTEuNjh2LTc2LjY0YzAtLjg4Ljc1LTEuNjggMS43My0xLjY4aDQzLjI0Yy45OCAwIDEuNzMuOCAxLjczIDEuNjh2NzYuNjRjMCAuODgtLjc1IDEuNjgtMS43MyAxLjY4em0tNDEuNTYtMy40NGgzOS45di03My4xMmgtMzkuOXoiLz48cGF0aCBmaWxsPSIjMjMyZjNlIiBzdHJva2Utb3BhY2l0eT0iMCIgc3Ryb2tlPSIjZmZmIiBkPSJNNzY4LjEyIDE2Ny45OGgzMC40NHYzLjRoLTMwLjQ0VjE2OHpNNzY4LjEyIDE3NS45N2gzMC40NHYzLjRoLTMwLjQ0di0zLjR6TTc2OC4xMiAxODMuOTNoMzAuNDR2My40aC0zMC40NHYtMy40ek03NjguMTIgMTkxLjloMzAuNDR2My40MmgtMzAuNDR2LTMuNHoiLz48dXNlIHRyYW5zZm9ybT0ibWF0cml4KDEsMCwwLDEsNzMwLDI0OSkgdHJhbnNsYXRlKDE3LjcyODM5NTA2MTcyODM5MiAxNy43Nzc3Nzc3Nzc3Nzc3OCkiIHhsaW5rOmhyZWY9IiNoIi8+PHVzZSB0cmFuc2Zvcm09Im1hdHJpeCgxLDAsMCwxLDczMCwyNDkpIHRyYW5zbGF0ZSg3Ni45MjU5MjU5MjU5MjU5MiAxNy43Nzc3Nzc3Nzc3Nzc3OCkiIHhsaW5rOmhyZWY9IiNpIi8+PHBhdGggZmlsbD0iIzIzMmYzZSIgc3Ryb2tlLW9wYWNpdHk9IjAiIHN0cm9rZT0iI2ZmZiIgZD0iTTgwNC45NyA0ODBoLTQzLjI0Yy0uOTggMC0xLjczLS44LTEuNzMtMS42OHYtNzYuNjRjMC0uODguNzUtMS42OCAxLjczLTEuNjhoNDMuMjRjLjk4IDAgMS43My44IDEuNzMgMS42OHY3Ni42NGMwIC44OC0uNzUgMS42OC0xLjczIDEuNjh6bS00MS41Ni0zLjQ0aDM5Ljl2LTczLjEyaC0zOS45eiIvPjxwYXRoIGZpbGw9IiMyMzJmM2UiIHN0cm9rZS1vcGFjaXR5PSIwIiBzdHJva2U9IiNmZmYiIGQ9Ik03NjguMTIgNDA3Ljk4aDMwLjQ0djMuNGgtMzAuNDRWNDA4ek03NjguMTIgNDE1Ljk3aDMwLjQ0djMuNGgtMzAuNDR2LTMuNHpNNzY4LjEyIDQyMy45M2gzMC40NHYzLjRoLTMwLjQ0di0zLjR6TTc2OC4xMiA0MzEuOTJoMzAuNDR2My40aC0zMC40NHYtMy40eiIvPjx1c2UgdHJhbnNmb3JtPSJtYXRyaXgoMSwwLDAsMSw3MzAsNDg5KSB0cmFuc2xhdGUoMTcuNzI4Mzk1MDYxNzI4MzkyIDE3Ljc3Nzc3Nzc3Nzc3Nzc4KSIgeGxpbms6aHJlZj0iI2oiLz48dXNlIHRyYW5zZm9ybT0ibWF0cml4KDEsMCwwLDEsNzMwLDQ4OSkgdHJhbnNsYXRlKDc2LjkyNTkyNTkyNTkyNTkyIDE3Ljc3Nzc3Nzc3Nzc3Nzc4KSIgeGxpbms6aHJlZj0iI2siLz48cGF0aCBmaWxsPSIjMjMyZjNlIiBzdHJva2Utb3BhY2l0eT0iMCIgc3Ryb2tlPSIjZmZmIiBkPSJNODA0Ljk3IDcwMGgtNDMuMjRjLS45OCAwLTEuNzMtLjgtMS43My0xLjY4di03Ni42NGMwLS44OC43NS0xLjY4IDEuNzMtMS42OGg0My4yNGMuOTggMCAxLjczLjggMS43MyAxLjY4djc2LjY0YzAgLjg4LS43NSAxLjY4LTEuNzMgMS42OHptLTQxLjU2LTMuNDRoMzkuOXYtNzMuMTJoLTM5Ljl6Ii8+PHBhdGggZmlsbD0iIzIzMmYzZSIgc3Ryb2tlLW9wYWNpdHk9IjAiIHN0cm9rZT0iI2ZmZiIgZD0iTTc2OC4xMiA2MjcuOThoMzAuNDR2My40aC0zMC40NFY2Mjh6TTc2OC4xMiA2MzUuOTdoMzAuNDR2My40aC0zMC40NHYtMy40ek03NjguMTIgNjQzLjkzaDMwLjQ0djMuNGgtMzAuNDR2LTMuNHpNNzY4LjEyIDY1MS45aDMwLjQ0djMuNDJoLTMwLjQ0di0zLjR6Ii8+PHVzZSB0cmFuc2Zvcm09Im1hdHJpeCgxLDAsMCwxLDczMCw3MDkpIHRyYW5zbGF0ZSgxNy43MjgzOTUwNjE3MjgzOTIgMTcuNzc3Nzc3Nzc3Nzc3NzgpIiB4bGluazpocmVmPSIjaiIvPjx1c2UgdHJhbnNmb3JtPSJtYXRyaXgoMSwwLDAsMSw3MzAsNzA5KSB0cmFuc2xhdGUoNzYuOTI1OTI1OTI1OTI1OTIgMTcuNzc3Nzc3Nzc3Nzc3NzgpIiB4bGluazpocmVmPSIjbCIvPjxwYXRoIGZpbGw9IiMzYTQxNGEiIHN0cm9rZS13aWR0aD0iLjA1IiBzdHJva2U9IiMzYTQxNGEiIGQ9Ik01NDkuNSA1NzUuNDhoLTE5di0uOTZoMTkuMDZ6bTE5NC4xMi0zNzVoLTkyLjZsLS44OC4wNi0uODUuMi0uOC4zNC0uNzUuNDUtLjY2LjU2LS41Ny42NS0uNDUuNzQtLjMzLjgtLjIuODQtLjA3Ljg4djM2M2wtLjA4IDEtLjI0Ljk4LS40Ljk0LS41Mi44Ny0uNjYuNzgtLjc3LjY2LS44Ni41My0uOTQuNC0xIC4yMy0uOTguMDhoLTE1LjI1bC4wNC0uNDgtLjAzLS40OGgxNS4ybC45LS4wNi44NC0uMi44LS4zNC43NS0uNDUuNjYtLjU2LjU3LS42NS40NS0uNzQuMzMtLjguMi0uODQuMDctLjg4di0zNjNsLjA4LTEgLjI0LS45OC40LS45NC41Mi0uODcuNjYtLjc4Ljc3LS42Ni44Ni0uNTMuOTQtLjQgMS0uMjMuOTgtLjA3aDkyLjY0eiIvPjxwYXRoIGZpbGw9IiMzYTQxNGEiIGQ9Ik01MzAuNSA1NzUuNDhoLS41di0uOTZoLjV6Ii8+PHBhdGggZmlsbD0iIzNhNDE0YSIgc3Ryb2tlLXdpZHRoPSIuMDUiIHN0cm9rZT0iIzNhNDE0YSIvPjxwYXRoIGZpbGw9IiMzYTQxNGEiIGQ9Ik03NTguMzggMjAwbC0xNC4yNiA0LjYzdi05LjI2eiIvPjxwYXRoIGZpbGw9IiMzYTQxNGEiIHN0cm9rZS13aWR0aD0iLjA1IiBzdHJva2U9IiMzYTQxNGEiIGQ9Ik03NTkuOTIgMjAwbC0xNi4yOCA1LjN2LTEwLjZ6bS0xNS4zMyAzLjk4bDEyLjI1LTMuOTgtMTIuMjYtMy45OHpNNTQ5LjUgNTc1LjQ4aC0xOXYtLjk2aDE5LjA2em0xOTQuMTItMTM1aC05Mi42bC0uODguMDYtLjg1LjItLjguMzQtLjc1LjQ1LS42Ni41Ni0uNTcuNjUtLjQ1Ljc0LS4zMy44LS4yLjg0LS4wNy44OHYxMjNsLS4wOCAxLS4yNC45OC0uNC45NC0uNTIuODctLjY2Ljc4LS43Ny42Ni0uODYuNTMtLjk0LjQtMSAuMjMtLjk4LjA4aC0xNS4yNWwuMDQtLjQ4LS4wMy0uNDhoMTUuMmwuOS0uMDYuODQtLjIuOC0uMzQuNzUtLjQ1LjY2LS41Ni41Ny0uNjUuNDUtLjc0LjMzLS44LjItLjg0LjA3LS44OHYtMTIzbC4wOC0xIC4yNC0uOTguNC0uOTQuNTItLjg3LjY2LS43OC43Ny0uNjYuODYtLjUzLjk0LS40IDEtLjIzLjk4LS4wOGg5Mi42NHoiLz48cGF0aCBmaWxsPSIjM2E0MTRhIiBkPSJNNTMwLjUgNTc1LjQ4aC0uNXYtLjk2aC41eiIvPjxwYXRoIGZpbGw9IiMzYTQxNGEiIHN0cm9rZS13aWR0aD0iLjA1IiBzdHJva2U9IiMzYTQxNGEiLz48cGF0aCBmaWxsPSIjM2E0MTRhIiBkPSJNNzU4LjM4IDQ0MGwtMTQuMjYgNC42M3YtOS4yNnoiLz48cGF0aCBmaWxsPSIjM2E0MTRhIiBzdHJva2Utd2lkdGg9Ii4wNSIgc3Ryb2tlPSIjM2E0MTRhIiBkPSJNNzU5LjkyIDQ0MGwtMTYuMjggNS4zdi0xMC42em0tMTUuMzMgMy45OGwxMi4yNS0zLjk4LTEyLjI2LTMuOTh6TTY0MCA1NzQuNmwxIC4yNC45NC40Ljg3LjUyLjc4LjY2LjY2Ljc3LjUzLjg2LjQuOTQuMjMgMSAuMDguOTh2NzNsLjA2Ljg4LjIuODUuMzQuOC40NS43NS41Ni42Ni42NS41Ny43NC40NS44LjMzLjg0LjIuODguMDdoOTIuNnYuOTZoLTkyLjY0bC0xLS4wOC0uOTgtLjI0LS45NC0uNC0uODctLjUyLS43OC0uNjYtLjY2LS43Ny0uNTMtLjg2LS40LS45NC0uMjMtMS0uMDgtLjk4di03M2wtLjA2LS44OC0uMi0uODUtLjM0LS44LS40NS0uNzUtLjU2LS42Ni0uNjUtLjU3LS43NC0uNDUtLjgtLjMzLS44NC0uMi0uODgtLjA3aC0xNS4ybC4wMy0uNDgtLjAzLS40OGgxNS4yNXptLTEwOS41Ljg4di0uOTZoMTkuMDZsLS4wNy45NnoiLz48cGF0aCBmaWxsPSIjM2E0MTRhIiBkPSJNNTMwLjUgNTc1LjQ4aC0uNXYtLjk2aC41eiIvPjxwYXRoIGZpbGw9IiMzYTQxNGEiIHN0cm9rZS13aWR0aD0iLjA1IiBzdHJva2U9IiMzYTQxNGEiLz48cGF0aCBmaWxsPSIjM2E0MTRhIiBkPSJNNzU4LjM4IDY2MGwtMTQuMjYgNC42M3YtOS4yNnoiLz48cGF0aCBmaWxsPSIjM2E0MTRhIiBzdHJva2Utd2lkdGg9Ii4wNSIgc3Ryb2tlPSIjM2E0MTRhIiBkPSJNNzU5LjkyIDY2MGwtMTYuMjggNS4zdi0xMC42em0tMTUuMzMgMy45OGwxMi4yNS0zLjk4LTEyLjI2LTMuOTh6Ii8+PHBhdGggZmlsbC1vcGFjaXR5PSIwIiBzdHJva2U9IiMzYTQxNGEiIGQ9Ik01NTAuMDIgNTc1YTE0LjY3IDE0LjY3IDAgMCAxIDE0LjY3LTE0LjY3aDQzLjk0QTE0LjY3IDE0LjY3IDAgMCAxIDYyMy4zIDU3NWExNC42NyAxNC42NyAwIDAgMS0xNC42NiAxNC42N0g1NjQuN0ExNC42NyAxNC42NyAwIDAgMSA1NTAgNTc1eiIvPjx1c2UgdHJhbnNmb3JtPSJtYXRyaXgoMSwwLDAsMSw1NjIuMDI0NjkxMzU4MDI0Niw1NjQuMzMzMzMzMzMzMzMzNCkgdHJhbnNsYXRlKDAgMTQuMjIyMjIyMjIyMjIyMjIzKSIgeGxpbms6aHJlZj0iI20iLz48cGF0aCBmaWxsPSIjM2E0MTRhIiBzdHJva2Utd2lkdGg9Ii4wNSIgc3Ryb2tlPSIjM2E0MTRhIiBkPSJNNTU2LjY3IDI5NS40OEg1MzAuNXYtLjk2aDI2LjI1em0xODYuOTUtOTVoLTkyLjZsLS44OC4wNi0uODUuMi0uOC4zNC0uNzUuNDUtLjY2LjU2LS41Ny42NS0uNDUuNzQtLjMzLjgtLjIuODQtLjA3Ljg4djgzbC0uMDggMS0uMjQuOTgtLjQuOTQtLjUyLjg3LS42Ni43OC0uNzcuNjYtLjg2LjUzLS45NC40LTEgLjIzLS45OC4wOGgtMjcuNzdsLjA0LS40OC0uMDUtLjQ4aDI3LjczbC44OC0uMDYuODUtLjIuOC0uMzQuNzUtLjQ1LjY2LS41Ni41Ny0uNjUuNDUtLjc0LjMzLS44LjItLjg0LjA3LS44OHYtODNsLjA4LTEgLjI0LS45OC40LS45NC41Mi0uODcuNjYtLjc4Ljc3LS42Ni44Ni0uNTMuOTQtLjQgMS0uMjMuOTgtLjA3aDkyLjY0eiIvPjxwYXRoIGZpbGw9IiMzYTQxNGEiIGQ9Ik01MzAuNSAyOTUuNDhoLS41di0uOTZoLjV6Ii8+PHBhdGggZmlsbD0iIzNhNDE0YSIgc3Ryb2tlLXdpZHRoPSIuMDUiIHN0cm9rZT0iIzNhNDE0YSIvPjxwYXRoIGZpbGw9IiMzYTQxNGEiIGQ9Ik03NTguMzggMjAwbC0xNC4yNiA0LjYzdi05LjI2eiIvPjxwYXRoIGZpbGw9IiMzYTQxNGEiIHN0cm9rZS13aWR0aD0iLjA1IiBzdHJva2U9IiMzYTQxNGEiIGQ9Ik03NTkuOTIgMjAwbC0xNi4yOCA1LjN2LTEwLjZ6bS0xNS4zMyAzLjk4bDEyLjI1LTMuOTgtMTIuMjYtMy45OHpNNjQwIDI5NC42bDEgLjI0Ljk0LjQuODcuNTIuNzguNjYuNjYuNzcuNTMuODYuNC45NC4yMyAxIC4wOC45OHYxMzNsLjA2Ljg4LjIuODUuMzQuOC40NS43NS41Ni42Ni42NS41Ny43NC40NS44LjMzLjg0LjIuODguMDdoOTIuNnYuOTZoLTkyLjY0bC0xLS4wOC0uOTgtLjI0LS45NC0uNC0uODctLjUyLS43OC0uNjYtLjY2LS43Ny0uNTMtLjg2LS40LS45NC0uMjMtMS0uMDgtLjk4di0xMzNsLS4wNi0uODgtLjItLjg1LS4zNC0uOC0uNDUtLjc1LS41Ni0uNjYtLjY1LS41Ny0uNzQtLjQ1LS44LS4zMy0uODQtLjItLjg4LS4wN2gtMjcuNzNsLjA0LS40OC0uMDUtLjQ4aDI3Ljc3em0tMTA5LjUuODh2LS45NmgyNi4yNWwtLjA4Ljk2eiIvPjxwYXRoIGZpbGw9IiMzYTQxNGEiIGQ9Ik01MzAuNSAyOTUuNDhoLS41di0uOTZoLjV6Ii8+PHBhdGggZmlsbD0iIzNhNDE0YSIgc3Ryb2tlLXdpZHRoPSIuMDUiIHN0cm9rZT0iIzNhNDE0YSIvPjxwYXRoIGZpbGw9IiMzYTQxNGEiIGQ9Ik03NTguMzggNDQwbC0xNC4yNiA0LjYzdi05LjI2eiIvPjxwYXRoIGZpbGw9IiMzYTQxNGEiIHN0cm9rZS13aWR0aD0iLjA1IiBzdHJva2U9IiMzYTQxNGEiIGQ9Ik03NTkuOTIgNDQwbC0xNi4yOCA1LjN2LTEwLjZ6bS0xNS4zMyAzLjk4bDEyLjI1LTMuOTgtMTIuMjYtMy45OHpNNjQwIDI5NC42bDEgLjI0Ljk0LjQuODcuNTIuNzguNjYuNjYuNzcuNTMuODYuNC45NC4yMyAxIC4wOC45OHYzNTNsLjA2Ljg4LjIuODUuMzQuOC40NS43NS41Ni42Ni42NS41Ny43NC40NS44LjMzLjg0LjIuODguMDdoOTIuNnYuOTZoLTkyLjY0bC0xLS4wOC0uOTgtLjI0LS45NC0uNC0uODctLjUyLS43OC0uNjYtLjY2LS43Ny0uNTMtLjg2LS40LS45NC0uMjMtMS0uMDgtLjk4di0zNTNsLS4wNi0uODgtLjItLjg1LS4zNC0uOC0uNDUtLjc1LS41Ni0uNjYtLjY1LS41Ny0uNzQtLjQ1LS44LS4zMy0uODQtLjItLjg4LS4wN2gtMjcuNzNsLjA0LS40OC0uMDUtLjQ4aDI3Ljc3em0tMTA5LjUuODh2LS45NmgyNi4yNWwtLjA4Ljk2eiIvPjxwYXRoIGZpbGw9IiMzYTQxNGEiIGQ9Ik01MzAuNSAyOTUuNDhoLS41di0uOTZoLjV6Ii8+PHBhdGggZmlsbD0iIzNhNDE0YSIgc3Ryb2tlLXdpZHRoPSIuMDUiIHN0cm9rZT0iIzNhNDE0YSIvPjxwYXRoIGZpbGw9IiMzYTQxNGEiIGQ9Ik03NTguMzggNjYwbC0xNC4yNiA0LjYzdi05LjI2eiIvPjxwYXRoIGZpbGw9IiMzYTQxNGEiIHN0cm9rZS13aWR0aD0iLjA1IiBzdHJva2U9IiMzYTQxNGEiIGQ9Ik03NTkuOTIgNjYwbC0xNi4yOCA1LjN2LTEwLjZ6bS0xNS4zMyAzLjk4bDEyLjI1LTMuOTgtMTIuMjYtMy45OHoiLz48cGF0aCBmaWxsLW9wYWNpdHk9IjAiIHN0cm9rZT0iIzNhNDE0YSIgZD0iTTU1Ny4yIDI5NWExNC42NyAxNC42NyAwIDAgMSAxNC42OC0xNC42N2gyNC4yNEExNC42NyAxNC42NyAwIDAgMSA2MTAuOCAyOTVhMTQuNjcgMTQuNjcgMCAwIDEtMTQuNjggMTQuNjdoLTI0LjI0QTE0LjY3IDE0LjY3IDAgMCAxIDU1Ny4yIDI5NXoiLz48dXNlIHRyYW5zZm9ybT0ibWF0cml4KDEsMCwwLDEsNTY5LjIwOTg3NjU0MzIwOTksMjg0LjMzMzMzMzMzMzMzMzMpIHRyYW5zbGF0ZSgwIDE0LjIyMjIyMjIyMjIyMjIyMykiIHhsaW5rOmhyZWY9IiNuIi8+PHBhdGggZmlsbD0ibm9uZSIgZD0iTTY2My4zNSAyNzZhNiA2IDAgMCAxIDYtNmgyMjhhNiA2IDAgMCAxIDYgNnY0OGE2IDYgMCAwIDEtNiA2aC0yMjhhNiA2IDAgMCAxLTYtNnoiLz48dXNlIHRyYW5zZm9ybT0ibWF0cml4KDEsMCwwLDEsNjYzLjM1LDI3MCkgdHJhbnNsYXRlKDI4LjY3MjgzOTUwNjE3MjgzNSAyMS4xMTExMTExMTExMTExMTQpIiB4bGluazpocmVmPSIjbyIvPjx1c2UgdHJhbnNmb3JtPSJtYXRyaXgoMSwwLDAsMSw2NjMuMzUsMjcwKSB0cmFuc2xhdGUoOTQuMDQzMjA5ODc2NTQzMiAyMS4xMTExMTExMTExMTExMTQpIiB4bGluazpocmVmPSIjcCIvPjx1c2UgdHJhbnNmb3JtPSJtYXRyaXgoMSwwLDAsMSw2NjMuMzUsMjcwKSB0cmFuc2xhdGUoMTcuNTkyNTkyNTkyNTkyNTk1IDQ3Ljc3Nzc3Nzc3Nzc3Nzc4NikiIHhsaW5rOmhyZWY9IiNxIi8+PHVzZSB0cmFuc2Zvcm09Im1hdHJpeCgxLDAsMCwxLDY2My4zNSwyNzApIHRyYW5zbGF0ZSgxMTcuNDY5MTM1ODAyNDY5MTMgNDcuNzc3Nzc3Nzc3Nzc3Nzg2KSIgeGxpbms6aHJlZj0iI3IiLz48cGF0aCBmaWxsPSJub25lIiBkPSJNNjYzLjM1IDUyMWE2IDYgMCAwIDEgNi02aDIyOGE2IDYgMCAwIDEgNiA2djU4YTYgNiAwIDAgMS02IDZoLTIyOGE2IDYgMCAwIDEtNi02eiIvPjx1c2UgdHJhbnNmb3JtPSJtYXRyaXgoMSwwLDAsMSw2NjMuMzUsNTE1KSB0cmFuc2xhdGUoMjguNjcyODM5NTA2MTcyODM1IDI2LjExMTExMTExMTExMTExNCkiIHhsaW5rOmhyZWY9IiNvIi8+PHVzZSB0cmFuc2Zvcm09Im1hdHJpeCgxLDAsMCwxLDY2My4zNSw1MTUpIHRyYW5zbGF0ZSg5NC4wNDMyMDk4NzY1NDMyIDI2LjExMTExMTExMTExMTExNCkiIHhsaW5rOmhyZWY9IiNzIi8+PHVzZSB0cmFuc2Zvcm09Im1hdHJpeCgxLDAsMCwxLDY2My4zNSw1MTUpIHRyYW5zbGF0ZSgxNy41OTI1OTI1OTI1OTI1OTUgNTIuNzc3Nzc3Nzc3Nzc3NzgpIiB4bGluazpocmVmPSIjcSIvPjx1c2UgdHJhbnNmb3JtPSJtYXRyaXgoMSwwLDAsMSw2NjMuMzUsNTE1KSB0cmFuc2xhdGUoMTE3LjQ2OTEzNTgwMjQ2OTEzIDUyLjc3Nzc3Nzc3Nzc3Nzc4KSIgeGxpbms6aHJlZj0iI3QiLz48cGF0aCBmaWxsPSJub25lIiBkPSJNNjgwIDc0MWE2IDYgMCAwIDEgNi02aDIyOGE2IDYgMCAwIDEgNiA2djQ4YTYgNiAwIDAgMS02IDZINjg2YTYgNiAwIDAgMS02LTZ6Ii8+PHVzZSB0cmFuc2Zvcm09Im1hdHJpeCgxLDAsMCwxLDY4MCw3MzUpIHRyYW5zbGF0ZSgyOC42NzI4Mzk1MDYxNzI4MzUgMjEuMTExMTExMTExMTExMTE0KSIgeGxpbms6aHJlZj0iI28iLz48dXNlIHRyYW5zZm9ybT0ibWF0cml4KDEsMCwwLDEsNjgwLDczNSkgdHJhbnNsYXRlKDk0LjA0MzIwOTg3NjU0MzIgMjEuMTExMTExMTExMTExMTE0KSIgeGxpbms6aHJlZj0iI3UiLz48dXNlIHRyYW5zZm9ybT0ibWF0cml4KDEsMCwwLDEsNjgwLDczNSkgdHJhbnNsYXRlKDE3LjU5MjU5MjU5MjU5MjU5NSA0Ny43Nzc3Nzc3Nzc3Nzc3ODYpIiB4bGluazpocmVmPSIjcSIvPjx1c2UgdHJhbnNmb3JtPSJtYXRyaXgoMSwwLDAsMSw2ODAsNzM1KSB0cmFuc2xhdGUoMTE3LjQ2OTEzNTgwMjQ2OTEzIDQ3Ljc3Nzc3Nzc3Nzc3Nzc4NikiIHhsaW5rOmhyZWY9IiN2Ii8+PHBhdGggZmlsbD0iIzI5YWFlMSIgZD0iTTEwNDAgNDAwaDE1MHY2M2gtMTUwdi02M3oiLz48cGF0aCBmaWxsPSIjMjE4OGI0IiBkPSJNMTA0OS45IDQ2Ny4wNmgxMzIuNzV2Mi44N0gxMDQ5Ljl2LTIuODd6Ii8+PHBhdGggZmlsbD0iI2ZmZiIgZD0iTTExNDQuMjUgNDA4Ljk2aDQwLjY1djQ0Ljg3aC00MC42NXYtNDQuODd6Ii8+PHBhdGggZmlsbD0iIzU0YmJlNyIgZD0iTTExNDYuMDUgNDEwLjNoMzcuMlY0NTJoLTM3LjJ2LTQxLjd6Ii8+PHBhdGggZmlsbD0iI2ZmZiIgZD0iTTEwNDcuNjUgNDA4LjRoMjcuOXYzMC44aC0yNy45di0zMC44ek0xMDg3LjEgNDA4LjRoMTMuOTV2MTcuMjJoLTEzLjk1VjQwOC40ek0xMTE4LjMgNDA4LjRoMTIuOXYxNy42NGgtMTIuOVY0MDguNHoiLz48cGF0aCBmaWxsPSIjNTRiYmU3IiBkPSJNMTA4Ny44NSA0MDkuMjRIMTEwMHYxNS40aC0xMi4xNXYtMTUuNHpNMTExOS41IDQwOS41MmgxMC44djE1LjU0aC0xMC44di0xNS41NHoiLz48cGF0aCBmaWxsPSIjZmZmIiBkPSJNMTE0OC4xNSA0MTQuNTZoMi44NXYzNC41aC0yLjg1di0zNC41ek0xMTUzLjU1IDQyNS4yaDN2MjMuNDVoLTNWNDI1LjJ6TTExNTguNjUgNDI3LjY1aDN2MjEuMDdoLTN2LTIxLjA3ek0xMTcwLjM1IDQyNy4zN2gyLjF2MjEuOWgtMi4xdi0yMS45ek0xMTczLjY1IDQyMC44NmgyLjI1djI4LjVoLTIuMjV2LTI4LjV6TTExNzguNDUgNDE1LjI2aDIuODV2MzMuOGgtMi44NXYtMzMuOHpNMTE2NC4yIDQyNi41M2gzdjIyLjRoLTN2LTIyLjR6Ii8+PHVzZSB0cmFuc2Zvcm09Im1hdHJpeCgxLDAsMCwxLDEwMTAsNDcwKSB0cmFuc2xhdGUoNzQuMTk3NTMwODY0MTk3NTMgMTkuNDQ0NDQ0NDQ0NDQ0NDQzKSIgeGxpbms6aHJlZj0iI3ciLz48cGF0aCBmaWxsPSJub25lIiBzdHJva2U9IiMzYTQxNGEiIGQ9Ik04MDcuMiA2NjBoMTEwLjE1YTYgNiAwIDAgMCA2LTZWNDQxYTYgNiAwIDAgMSA2LTZoOTQuMjciLz48cGF0aCBmaWxsPSIjM2E0MTRhIiBzdHJva2Utd2lkdGg9Ii4wNSIgc3Ryb2tlPSIjM2E0MTRhIiBkPSJNODA3LjIgNjYwLjQ4aC0uNXYtLjk2aC41eiIvPjxwYXRoIGZpbGw9IiMzYTQxNGEiIHN0cm9rZT0iIzNhNDE0YSIgZD0iTTEwMzguMzggNDM1bC0xNC4yNiA0LjYzdi05LjI2eiIvPjxwYXRoIGZpbGw9Im5vbmUiIHN0cm9rZT0iIzNhNDE0YSIgZD0iTTgwNy4yIDIwMGgxMTAuMTVhNiA2IDAgMCAxIDYgNnYyMjNhNiA2IDAgMCAwIDYgNmg5NC4yNyIvPjxwYXRoIGZpbGw9IiMzYTQxNGEiIHN0cm9rZS13aWR0aD0iLjA1IiBzdHJva2U9IiMzYTQxNGEiIGQ9Ik04MDcuMiAyMDAuNDdoLS41di0uOTRoLjV6Ii8+PHBhdGggZmlsbD0iIzNhNDE0YSIgc3Ryb2tlPSIjM2E0MTRhIiBkPSJNMTAzOC4zOCA0MzVsLTE0LjI2IDQuNjN2LTkuMjZ6Ii8+PHBhdGggZmlsbD0ibm9uZSIgc3Ryb2tlPSIjM2E0MTRhIiBkPSJNODA3LjIgNDQwaDExMy42NWEyLjUgMi41IDAgMCAwIDIuNS0yLjUgMi41IDIuNSAwIDAgMSAyLjUtMi41aDk3Ljc3Ii8+PHBhdGggZmlsbD0iIzNhNDE0YSIgc3Ryb2tlLXdpZHRoPSIuMDUiIHN0cm9rZT0iIzNhNDE0YSIgZD0iTTgwNy4yIDQ0MC40OGgtLjV2LS45NmguNXoiLz48cGF0aCBmaWxsPSIjM2E0MTRhIiBzdHJva2U9IiMzYTQxNGEiIGQ9Ik0xMDM4LjM4IDQzNWwtMTQuMjYgNC42M3YtOS4yNnoiLz48cGF0aCBmaWxsPSIjN2E3YTdhIiBzdHJva2Utb3BhY2l0eT0iMCIgc3Ryb2tlPSIjMDAwIiBkPSJNMTUxOS4xOCAyNjYuMWgtMzIuOTZjMy45NyAxNC4zMy0xLjM0IDE2LjQtMjQuNjIgMTYuNHY3LjVoNzkuMnYtNy41Yy0yMy4zIDAtMjUuNTgtMi4wNi0yMS42Mi0xNi40Ii8+PHBhdGggZmlsbD0iI2EwYTFhMiIgc3Ryb2tlLW9wYWNpdHk9IjAiIHN0cm9rZT0iIzAwMCIgZD0iTTE1NTIuOCAxODBoLTEwNi4zMmMtMy42IDAtNi40OCAzLjItNi40OCA2Ljh2NzQuOTVjMCAzLjU0IDIuODggNi43MyA2LjQ4IDYuNzNoMTA2LjMyYzMuNiAwIDcuMi0zLjIgNy4yLTYuNzNWMTg2LjhjMC0zLjYyLTMuNi02LjgtNy4yLTYuOCIvPjxwYXRoIGZpbGwtb3BhY2l0eT0iLjIiIGZpbGw9IiNmZmYiIHN0cm9rZS1vcGFjaXR5PSIwIiBzdHJva2U9IiMwMDAiIGQ9Ik0xNTUyLjgyIDE4MGgtMTA2LjI4Yy0zLjYgMC02LjU0IDMuMi02LjU0IDYuOHY3NC45NWMwIDMuNTQgMi45MyA2LjczIDYuNTQgNi43M2gyLjVMMTU1Mi44IDE4MHoiLz48cGF0aCBmaWxsPSIjNTliNGQ5IiBzdHJva2Utb3BhY2l0eT0iMCIgc3Ryb2tlPSIjMDAwIiBkPSJNMTU1MC40IDE4OS41NnY2OS4zNWgtMTAwLjh2LTY5LjMzaDEwMC44eiIvPjxwYXRoIGZpbGw9IiNhMGExYTIiIHN0cm9rZS1vcGFjaXR5PSIwIiBzdHJva2U9IiMwMDAiIGQ9Ik0xNDYxLjYgMjgyLjgzaDc5LjJWMjkwaC03OS4ydi03LjE3eiIvPjxwYXRoIGZpbGw9IiNiOGQ0MzIiIHN0cm9rZS1vcGFjaXR5PSIwIiBzdHJva2U9IiMwMDAiIGQ9Ik0xNTAxLjI0IDE4NWMwIC45NS0uNzYgMS43LTEuNyAxLjdzLTEuNy0uNzUtMS43LTEuN2MwLS45My43Ni0xLjcgMS43LTEuN3MxLjcuNzcgMS43IDEuNyIvPjxwYXRoIGZpbGwtb3BhY2l0eT0iLjQiIGZpbGw9IiNmZmYiIHN0cm9rZS1vcGFjaXR5PSIwIiBzdHJva2U9IiMwMDAiIGQ9Ik0xNTA0LjEgMjA4LjNsLTEuMjQuNzQtMS4wNi0xLjkyYy0uNC0uNzQtLjQ3LTEuMzctLjItMi4wMy4yNS0uNTcuNzQtLjkgMS4zNS0uOWguMTRjLjY3LjA1IDEuMzUuNzYgMS41NiAxLjQuMjIuNjUuMjIgMi4yLS41NyAyLjd6Ii8+PHBhdGggZmlsbC1vcGFjaXR5PSIuODUiIGZpbGw9IiNmYmZiZjkiIHN0cm9rZS1vcGFjaXR5PSIwIiBzdHJva2U9IiMwMDAiIGQ9Ik0xNDkyLjE0IDI0NS40Yy4wMi0uMDYtNi4wNy05LjgtNS43LTExLjQ2IDIuODYtMTMuNTggNi4yNy0xNS41OCA3LjUyLTE4LjQyIDEuMjUtMi44Ny41Mi01LjUyIDItNS41NiAxLjUtLjA0IDUuOS4zIDYuOTMuNjUgMS4wNS4zNiAyLjU2IDEuNDMgMy40MiAzLjc3IDEuMTIgMi4xNSAyLjI0IDQuMyAyLjYgNi43Mi4wMy4yMi4xMy40NS4zLjYgMi44IDMuMSAzLjM4IDYuOSAzLjIgMTAuOS0uMDYgMS0uMjIgMi41LS4zNSAzLjAzLS4xMy41LTMuOTUgMTIuODUtMTAgMTIuNy02LS4xNi05LjItMi4zOC05LjkzLTIuOTJ6Ii8+PHBhdGggZmlsbC1vcGFjaXR5PSIuODUiIGZpbGw9IiNmZjhjMDAiIHN0cm9rZS1vcGFjaXR5PSIwIiBzdHJva2U9IiMwMDAiIGQ9Ik0xNTI0LjU1IDI0Mi41M2MtMi4yLS4xLTMuMzctMS40My0zLjQtMi43IDAtMS40Ny42My0zLjM0LTEuNTItMy41Mi0yLjE1LS4xOC02LjU0LS40LTcuNzItLjYyLTIuNTYtLjQ3LTIuNjguNTYtMi43MyAxLjMtLjAyLjM2LjMgMy44NC0uMDQgNS4yLjAyLjU3IDAgMS4xNS0uMSAxLjczLS4yNiAxLjYtLjQzIDMuMi0uNjUgNC43OCAwIC43Ni0uMDIgMS41My0uMDQgMi4zIDEuODcgMi43NSA1LjUgMi44NiA3Ljc1LjQ4IDIuMS0yLjE1IDQuNjUtMy42IDcuMzQtNC45Ljc1LS4zOCAxLjQ3LS45MiAxLjg3LTIgLjQyLTEuMDUuMDQtMi0uNzUtMi4wM3oiLz48cGF0aCBmaWxsLW9wYWNpdHk9Ii44NSIgZmlsbD0iIzFlMWUxZSIgc3Ryb2tlLW9wYWNpdHk9IjAiIHN0cm9rZT0iIzAwMCIgZD0iTTE0OTUuMjMgMjQxLjIyYy0uMyAxLjQ4LTEuOTIgMi43Ni0yLjc1IDIuNjYtLjUzLS4zLTEuOTItMi4xMi0yLjIzLTIuNTYtLjktMS4zOC00LjktNy4xLTYuMDctNi42Ni0uMzguMDUtLjYuMy0uOC42LS4wNyAwLS4xNC4wNC0uMjIuMS0uNi0xLjMtLjUzLTIuNTcuMS0zLjggMS41LTIuNjYgMi4xNi01LjQzIDIuOTItOC4zOC4yNi0xLjA0Ljg3LTEuODggMS41LTIuNjYgMS4xOC0xLjQ4IDEuMTQtMyAyLjM1LTQuNS44LS45MyAxLjQ3LTEuOSAxLjQtMy4xNC0uMjMtMy40NS0uNjUtNi44LS41NC0xMC4yNi4xNS0zLjM1IDMuMTMtNi4xNiA2LjQ1LTcuNCAzLjQzLTEuMjcgNi42Ny0uNjMgOS40MyAxLjgzIDIuMTggMS45MiAzLjEzIDQuNSAzLjMyIDcuMzUgMCAuNTQuMDQgMS4wMy4wNCAxLjU3LS4yNyA1LjM4IDIgOS43NyA1LjQzIDEzLjY2IDMuMzIgMy43NSA0LjYgOC4yMyA0LjkgMTMuMDYuMDggMS4yNy0uMzQgMi40Ni0uODcgMy42LS43IDEuNjctMS43MyAyLjY1LTIuNjcgMy4xLS45NS40NC00LjY4LjctMy45Ny0xLjczLjM0LTEuMTguNDItMS43Mi0xLjA1LTIuMDIuMDgtMSAuMjctMi4wMi4zLTMgLjI0LTQtLjQ4LTcuMTYtMy41NC0xMC0uOS0uOS0uMDMtMS0uMDctMS44LS4xLTIuMTYtMS4zMy00LjI4LTIuNDYtNi40NS0uMTItLjQtLjMtLjc0LS41Ny0xLjAzLjA4LS4zNS0uMS0uNi0uMjYtLjg0LjItLjcuNDYtMS4zMy4zNS0yLjA3IDAtLjYtNi40Mi0uOS03LjItLjU0LS4zNS0uMTUtMy43NS0uMy0zLjc1LS4yNS0uNDUuMzUtLjguODQtLjk0IDEuMzgtLjEuNS43MiAxLjU4LjggMS43M2wtLjEyIDIuMjItLjIzLjc0Yy0uNS44My0xLjA4IDEuNjctMS42IDIuNS0uNDYuOC0xLjAzIDEuNTQtMS4xIDIuNDctLjM0Ljk1Ljk4IDIuMjMtLjIzIDMuMzctMS4yIDEuMDgtMi40NSA2LjQ1LTIuNDUgNy43My0uMDQgMS4zOCAyLjUgNC41IDMuNDMgNS4zOCAxLjc0IDEuNjcgMy4zMiAyLjI2IDIuOTggNC4wNHpNMTQ5NCAyNDYuMzNjMi42LjczIDkuODcuOTQgMTMuNC0yLjU4bDEuNzgtMS42MmMwIC42LS4wMyAxLjE3LS4xMyAxLjc2LS4yNCAxLjU3LS40MiAzLjE2LS42MyA0Ljc0bC0uMDUgMi4zMmMtMy4yNC0uOS04LjEzLTEuMi05LjYtMS4xMy0xLjQ1LjA4LTMuNDQuNDQtNC42Ljc0bC0uMTYtNC4yNHoiLz48cGF0aCBmaWxsLW9wYWNpdHk9Ii44NSIgZmlsbD0iI2RkYTUxNiIgc3Ryb2tlLW9wYWNpdHk9IjAiIHN0cm9rZT0iIzAwMCIgZD0iTTE1MjEuMzYgMjQwLjIybC0uMTYtLjIzLjE2LjIyek0xNTIwLjQgMjM2Ljg3bC0uMi0uMi4yLjJ6Ii8+PHBhdGggZmlsbC1vcGFjaXR5PSIuODUiIGZpbGw9IiM4YzVmMDciIHN0cm9rZS1vcGFjaXR5PSIwIiBzdHJva2U9IiMwMDAiIGQ9Ik0xNDkyLjUzIDI0NC4xOGwuMS4xNi0uMS0uMTZ6Ii8+PHBhdGggZmlsbC1vcGFjaXR5PSIuODUiIGZpbGw9IiNlM2E5MDYiIHN0cm9rZS1vcGFjaXR5PSIwIiBzdHJva2U9IiMwMDAiIGQ9Ik0xNTIwLjIgMjM2LjY3eiIvPjxwYXRoIGZpbGwtb3BhY2l0eT0iLjg1IiBmaWxsPSIjZmY4YzAwIiBzdHJva2Utb3BhY2l0eT0iMCIgc3Ryb2tlPSIjMDAwIiBkPSJNMTQ5MS40NyAyNDIuNjJjLTEuODgtMS45NS0zLjMzLTQuMy00LjY2LTYuOTUtLjY4LTEuNC0yLjgzLTIuNS0zLjYtLjMyLS44MiAyLjItMi4wOCAzLjA4LTQuMTUgMi44LTEuNTItLjItMi45NC45Ny0yLjMgMi44OC43IDIuMDQgMS40NSAzLjY1LS4wNCA1LjEtMS41IDEuNDMtLjg3IDIuOTMgMS4yNCAzLjIgMi4xLjMgNy42NSAxLjU0IDEwLjg1IDMuMjMgMy4yIDEuNjggNS43NC0xLjUgNi4xLTIuNDQuODMtMi4zMy0xLjUzLTUuNTUtMy40My03LjV6Ii8+PHBhdGggZmlsbC1vcGFjaXR5PSIuODUiIGZpbGw9IiMxZTFlMWUiIHN0cm9rZS1vcGFjaXR5PSIwIiBzdHJva2U9IiMwMDAiIGQ9Ik0xNDk4LjYgMjE5Ljc2Yy0xLjggMC0zLTEuNy0zLjg0LTMuMTggMCAwLTIuOC0zLjg4LTEuNzgtNi4wMy4xNS0uMy4zOC0uOCAzLjI0LTIuNThsLjUzLS40NS41Mi0uMjYuMzItLjEzYy40LS4xLjgzLS4yNCAxLjI2LS4yNGguMmwuMzcuMDguODYuMjggNi45NCAyLjU2LjIgMS4wM2MuMTYuODUtLjA1IDEuNi0uMjMgMi4xOGwtLjI1IDEtLjYuMjJjLS41Mi4yLTEuMzUgMS4wNy0yIDEuNzgtLjY2LjctMS4yOCAxLjM2LTEuOSAxLjc2LS4yNS4xNi0uNS4zNC0uNzMuNTItMSAuNzQtMS45MyAxLjQ0LTMuMSAxLjQ0eiIvPjxwYXRoIGZpbGwtb3BhY2l0eT0iLjg1IiBmaWxsPSIjZmY4YzAwIiBzdHJva2Utb3BhY2l0eT0iMCIgc3Ryb2tlPSIjMDAwIiBkPSJNMTUwMy4yNSAyMTEuMjVjLTEuMjMgMS4wNi0yLjYzIDEuOTctNC4zOCAyLjAyLS4wNy4wNi0uMDcuMDYgMCAwIDAtLjQtLjAyLS43OC0uMzUtMS4wNi0uMy0uMjMtLjMyLS42LS4yNC0uOS4zMy0xLjI1LjEzLTIuNTIuMTgtMy44LS4zNC0uMS0xLjEuMTgtMS4yLjJsLS40NC4yMy0uNTIuNDRjLS4yMi4xNC0yLjYgMS41Ny0yLjgzIDIuMS0uNjMgMS4zIDEuNDIgNC41NSAxLjczIDQuOTMgMi40IDQuMiAzLjczIDIuMzYgNS45OC44IDEuMi0uNzggMi43OC0zLjE2IDQuMTUtMy42Ni4xOC0uNjguNDYtMS4zNC4zMi0yLjA1LS44Ni4wMy0xLjYzLjEtMi40Ljc1eiIvPjxwYXRoIGZpbGwtb3BhY2l0eT0iLjg1IiBmaWxsPSIjZTNhOTA2IiBzdHJva2Utb3BhY2l0eT0iMCIgc3Ryb2tlPSIjMDAwIiBkPSJNMTQ5Ny40NiAyMDcuNTRoLjAydi0uMDJsLS4wMi4wMnoiLz48cGF0aCBmaWxsLW9wYWNpdHk9Ii44NSIgZmlsbD0iI2ZjZDExNiIgc3Ryb2tlLW9wYWNpdHk9IjAiIHN0cm9rZT0iIzAwMCIgZD0iTTE1MDQuNjcgMjA5LjUzYy41Mi4yNyAxIC41NiAxIDEuMjQtLjk2LjA2LTEuOC4xMy0yLjY0Ljg1LTEuMzUgMS4xNi0zLjE3IDIuODgtNS4xIDIuOTMuMS0uNjMtLjgyLTEuNTMtLjU3LTIuNi4zLTEuMzguMzYtMy4wNC40LTQuNDMuOS0uMzQgMS43LS4wMyAyLjUzLjIzLjMzLjIuNjcuNCAxIC42MmwxLjguNjhjLjQ4LjMyIDEuMDQuMzYgMS41Ny40OHoiLz48cGF0aCBmaWxsLW9wYWNpdHk9Ii45IiBmaWxsPSIjZmZmIiBzdHJva2Utb3BhY2l0eT0iMCIgc3Ryb2tlPSIjMDAwIiBkPSJNMTQ5NS4yIDIwNS4yNGgyLjR2Mi40aC0yLjR2LTIuNHpNMTUwMi40IDIwNS4yNGgyLjR2Mi40aC0yLjR2LTIuNHoiLz48cGF0aCBmaWxsLW9wYWNpdHk9IjAiIHN0cm9rZS13aWR0aD0iMCIgc3Ryb2tlLW9wYWNpdHk9IjAiIHN0cm9rZT0iIzAwMCIgZD0iTTE0NjMuMDIgMjgyLjgzaDc2LjM1Yy45NSAwIDEuNDMuNDggMS40MyAxLjQzdjQuM2MwIC45Ni0uNDggMS40NC0xLjQzIDEuNDRoLTc2LjM1Yy0uOTUgMC0xLjQyLS40OC0xLjQyLTEuNDR2LTQuM2MwLS45NS40Ny0xLjQzIDEuNDItMS40M3oiLz48dXNlIHRyYW5zZm9ybT0ibWF0cml4KDEsMCwwLDEsMTQxMCwyOTkpIHRyYW5zbGF0ZSg0My43NjU0MzIwOTg3NjU0NCAxNy43Nzc3Nzc3Nzc3Nzc3OCkiIHhsaW5rOmhyZWY9IiN4Ii8+PHVzZSB0cmFuc2Zvcm09Im1hdHJpeCgxLDAsMCwxLDE0MTAsMjk5KSB0cmFuc2xhdGUoODMuMjA5ODc2NTQzMjA5ODcgMTcuNzc3Nzc3Nzc3Nzc3NzgpIiB4bGluazpocmVmPSIjeSIvPjxwYXRoIGZpbGw9IiNmZmE5ODkiIHN0cm9rZS1vcGFjaXR5PSIwIiBzdHJva2U9IiMwMDAiIGQ9Ik0xNTE5LjE4IDUwNi4xaC0zMi45NmMzLjk3IDE0LjMzLTEuMzQgMTYuNC0yNC42MiAxNi40djcuNWg3OS4ydi03LjVjLTIzLjMgMC0yNS41OC0yLjA3LTIxLjYyLTE2LjQiLz48cGF0aCBmaWxsPSIjZmZkMGIxIiBzdHJva2Utb3BhY2l0eT0iMCIgc3Ryb2tlPSIjMDAwIiBkPSJNMTU1Mi44IDQyMGgtMTA2LjMyYy0zLjYgMC02LjQ4IDMuMi02LjQ4IDYuOHY3NC45NWMwIDMuNTQgMi44OCA2LjczIDYuNDggNi43M2gxMDYuMzJjMy42IDAgNy4yLTMuMiA3LjItNi43M1Y0MjYuOGMwLTMuNjItMy42LTYuOC03LjItNi44Ii8+PHBhdGggZmlsbC1vcGFjaXR5PSIuMiIgZmlsbD0iI2ZmZiIgc3Ryb2tlLW9wYWNpdHk9IjAiIHN0cm9rZT0iIzAwMCIgZD0iTTE1NTIuODIgNDIwaC0xMDYuMjhjLTMuNiAwLTYuNTQgMy4yLTYuNTQgNi44djc0Ljk1YzAgMy41NCAyLjkzIDYuNzMgNi41NCA2LjczaDIuNUwxNTUyLjggNDIweiIvPjxwYXRoIGZpbGw9IiNkZmUzZTgiIHN0cm9rZS1vcGFjaXR5PSIwIiBzdHJva2U9IiMwMDAiIGQ9Ik0xNTUwLjQgNDI5LjU2djY5LjM1aC0xMDAuOHYtNjkuMzNoMTAwLjh6Ii8+PHBhdGggZmlsbD0iI2ZmZDBiMSIgc3Ryb2tlLW9wYWNpdHk9IjAiIHN0cm9rZT0iIzAwMCIgZD0iTTE0NjEuNiA1MjIuODNoNzkuMlY1MzBoLTc5LjJ2LTcuMTd6Ii8+PHBhdGggZmlsbD0iI2ZmZmY0MSIgc3Ryb2tlLW9wYWNpdHk9IjAiIHN0cm9rZT0iIzAwMCIgZD0iTTE1MDEuMjQgNDI1YzAgLjk1LS43NiAxLjctMS43IDEuN3MtMS43LS43NS0xLjctMS43YzAtLjkzLjc2LTEuNyAxLjctMS43czEuNy43NyAxLjcgMS43Ii8+PHBhdGggZmlsbC1vcGFjaXR5PSIuNCIgZmlsbD0iI2ZmZiIgc3Ryb2tlLW9wYWNpdHk9IjAiIHN0cm9rZT0iIzAwMCIgZD0iTTE1MDQuMSA0NDguM2wtMS4yNC43NS0xLjA2LTEuOTRjLS40LS43Mi0uNDctMS4zNS0uMi0yIC4yNS0uNTguNzQtLjkgMS4zNS0uOWguMTRjLjY3LjA1IDEuMzUuNzYgMS41NiAxLjQuMjIuNjUuMjIgMi4yLS41NyAyLjd6Ii8+PHBhdGggZmlsbC1vcGFjaXR5PSIuODUiIGZpbGw9IiNmZmYiIHN0cm9rZS1vcGFjaXR5PSIwIiBzdHJva2U9IiMwMDAiIGQ9Ik0xNDkyLjE0IDQ4NS40Yy4wMi0uMDYtNi4wNy05LjgtNS43LTExLjQ2IDIuODYtMTMuNTggNi4yNy0xNS41OCA3LjUyLTE4LjQyIDEuMjUtMi44Ny41Mi01LjUyIDItNS41NiAxLjUtLjA0IDUuOS4zIDYuOTMuNjUgMS4wNS4zNiAyLjU2IDEuNDMgMy40MiAzLjc3IDEuMTIgMi4xNSAyLjI0IDQuMyAyLjYgNi43Mi4wMy4yMi4xMy40NS4zLjYgMi44IDMuMSAzLjM4IDYuOSAzLjIgMTAuOS0uMDYgMS0uMjIgMi41LS4zNSAzLjAzLS4xMy41LTMuOTUgMTIuODUtMTAgMTIuNy02LS4xNS05LjItMi4zOC05LjkzLTIuOTJ6Ii8+PHBhdGggZmlsbC1vcGFjaXR5PSIuODUiIGZpbGw9IiNmZmJiMGYiIHN0cm9rZS1vcGFjaXR5PSIwIiBzdHJva2U9IiMwMDAiIGQ9Ik0xNTI0LjU1IDQ4Mi41MmMtMi4yLS4xLTMuMzctMS40Mi0zLjQtMi43IDAtMS40Ni42My0zLjMzLTEuNTItMy41LTIuMTUtLjItNi41NC0uNDMtNy43Mi0uNjQtMi41Ni0uNDctMi42OC41Ni0yLjczIDEuMy0uMDIuMzYuMyAzLjg0LS4wNCA1LjIuMDIuNTcgMCAxLjE1LS4xIDEuNzMtLjI2IDEuNi0uNDMgMy4yLS42NSA0Ljc4IDAgLjc2LS4wMiAxLjUzLS4wNCAyLjMgMS44NyAyLjc1IDUuNSAyLjg1IDcuNzUuNDggMi4xLTIuMTUgNC42NS0zLjYgNy4zNC00LjkuNzUtLjM4IDEuNDctLjkyIDEuODctMiAuNDItMS4wNS4wNC0yLS43NS0yLjA0eiIvPjxwYXRoIGZpbGwtb3BhY2l0eT0iLjg1IiBmaWxsPSIjYTQ0ZDJkIiBzdHJva2Utb3BhY2l0eT0iMCIgc3Ryb2tlPSIjMDAwIiBkPSJNMTQ5NS4yMyA0ODEuMjJjLS4zIDEuNDgtMS45MiAyLjc2LTIuNzUgMi42Ni0uNTMtLjMtMS45Mi0yLjEyLTIuMjMtMi41Ni0uOS0xLjM4LTQuOS03LjEtNi4wNy02LjY2LS4zOC4wNS0uNi4zLS44LjYtLjA3IDAtLjE0LjA0LS4yMi4xLS42LTEuMy0uNTMtMi41Ny4xLTMuOCAxLjUtMi42NiAyLjE2LTUuNDMgMi45Mi04LjM4LjI2LTEuMDQuODctMS44OCAxLjUtMi42NiAxLjE4LTEuNDggMS4xNC0zIDIuMzUtNC41LjgtLjkzIDEuNDctMS45IDEuNC0zLjE0LS4yMy0zLjQ1LS42NS02LjgtLjU0LTEwLjI2LjE1LTMuMzUgMy4xMy02LjE2IDYuNDUtNy40IDMuNDMtMS4yNyA2LjY3LS42MyA5LjQzIDEuODMgMi4xOCAxLjkzIDMuMTMgNC41IDMuMzIgNy4zNSAwIC41NC4wNCAxLjAzLjA0IDEuNTgtLjI3IDUuMzcgMiA5Ljc1IDUuNDMgMTMuNjUgMy4zMiAzLjc1IDQuNiA4LjIzIDQuOSAxMy4wNi4wOCAxLjI3LS4zNCAyLjQ2LS44NyAzLjYtLjcgMS42Ny0xLjczIDIuNjUtMi42NyAzLjEtLjk1LjQ0LTQuNjguNy0zLjk3LTEuNzMuMzQtMS4xOC40Mi0xLjczLTEuMDUtMi4wMi4wOC0xIC4yNy0yLjAyLjMtMyAuMjQtNC0uNDgtNy4xNS0zLjU0LTEwLS45LS45LS4wMy0xLS4wNy0xLjgtLjEtMi4xNi0xLjMzLTQuMjgtMi40Ni02LjQ1LS4xMi0uNC0uMy0uNzQtLjU3LTEuMDMuMDgtLjM1LS4xLS42LS4yNi0uODQuMi0uNy40Ni0xLjMzLjM1LTIuMDcgMC0uNi02LjQyLS45LTcuMi0uNTQtLjM1LS4xNS0zLjc1LS4zLTMuNzUtLjI1LS40NS4zNS0uOC44NC0uOTQgMS4zOC0uMS41LjcyIDEuNTguOCAxLjczbC0uMTIgMi4yMi0uMjMuNzRjLS41LjgzLTEuMDggMS42Ny0xLjYgMi41LS40Ni44LTEuMDMgMS41NC0xLjEgMi40Ny0uMzQuOTUuOTggMi4yMy0uMjMgMy4zNy0xLjIgMS4wOC0yLjQ1IDYuNDUtMi40NSA3LjczLS4wNCAxLjM4IDIuNSA0LjUgMy40MyA1LjM4IDEuNzQgMS42NyAzLjMyIDIuMjYgMi45OCA0LjA0ek0xNDk0IDQ4Ni4zM2MyLjYuNzMgOS44Ny45NCAxMy40LTIuNThsMS43OC0xLjYyYzAgLjYtLjAzIDEuMTctLjEzIDEuNzYtLjI0IDEuNTctLjQyIDMuMTYtLjYzIDQuNzRsLS4wNSAyLjMyYy0zLjI0LS45LTguMTMtMS4yLTkuNi0xLjEzLTEuNDUuMDgtMy40NC40NC00LjYuNzRsLS4xNi00LjI0eiIvPjxwYXRoIGZpbGwtb3BhY2l0eT0iLjg1IiBmaWxsPSIjZmZkNDI1IiBzdHJva2Utb3BhY2l0eT0iMCIgc3Ryb2tlPSIjMDAwIiBkPSJNMTUyMS4zNiA0ODAuMjJsLS4xNi0uMjMuMTYuMjJ6TTE1MjAuNCA0NzYuODdsLS4yLS4yLjIuMnoiLz48cGF0aCBmaWxsLW9wYWNpdHk9Ii44NSIgZmlsbD0iI2ZmOGUxNiIgc3Ryb2tlLW9wYWNpdHk9IjAiIHN0cm9rZT0iIzAwMCIgZD0iTTE0OTIuNTMgNDg0LjE4bC4xLjE2LS4xLS4xNnoiLz48cGF0aCBmaWxsLW9wYWNpdHk9Ii44NSIgZmlsbD0iI2ZmZDgxNSIgc3Ryb2tlLW9wYWNpdHk9IjAiIHN0cm9rZT0iIzAwMCIgZD0iTTE1MjAuMiA0NzYuNjd6Ii8+PHBhdGggZmlsbC1vcGFjaXR5PSIuODUiIGZpbGw9IiNmZmJiMGYiIHN0cm9rZS1vcGFjaXR5PSIwIiBzdHJva2U9IiMwMDAiIGQ9Ik0xNDkxLjQ3IDQ4Mi42MmMtMS44OC0xLjk1LTMuMzMtNC4zLTQuNjYtNi45NS0uNjgtMS40LTIuODMtMi41LTMuNi0uMzItLjgyIDIuMi0yLjA4IDMuMDgtNC4xNSAyLjgtMS41Mi0uMi0yLjk0Ljk3LTIuMyAyLjg4LjcgMi4wNCAxLjQ1IDMuNjUtLjA0IDUuMS0xLjUgMS40My0uODcgMi45MyAxLjI0IDMuMiAyLjEuMyA3LjY1IDEuNTQgMTAuODUgMy4yMyAzLjIgMS42OCA1Ljc0LTEuNSA2LjEtMi40NC44My0yLjMzLTEuNTMtNS41NS0zLjQzLTcuNXoiLz48cGF0aCBmaWxsLW9wYWNpdHk9Ii44NSIgZmlsbD0iI2E0NGQyZCIgc3Ryb2tlLW9wYWNpdHk9IjAiIHN0cm9rZT0iIzAwMCIgZD0iTTE0OTguNiA0NTkuNzZjLTEuOCAwLTMtMS43LTMuODQtMy4xOCAwIDAtMi44LTMuODgtMS43OC02LjAzLjE1LS4zLjM4LS44IDMuMjQtMi41OGwuNTMtLjQ1LjUyLS4yNi4zMi0uMTNjLjQtLjEuODMtLjI0IDEuMjYtLjI0aC4ybC4zNy4wOC44Ni4yOCA2Ljk0IDIuNTYuMiAxLjA0Yy4xNi44NC0uMDUgMS41OC0uMjMgMi4xN2wtLjI1IDEtLjYuMjJjLS41Mi4yLTEuMzUgMS4wNy0yIDEuNzgtLjY2LjctMS4yOCAxLjM2LTEuOSAxLjc2LS4yNS4xNi0uNS4zNC0uNzMuNTItMSAuNzQtMS45MyAxLjQ0LTMuMSAxLjQ0eiIvPjxwYXRoIGZpbGwtb3BhY2l0eT0iLjg1IiBmaWxsPSIjZmZiYjBmIiBzdHJva2Utb3BhY2l0eT0iMCIgc3Ryb2tlPSIjMDAwIiBkPSJNMTUwMy4yNSA0NTEuMjVjLTEuMjMgMS4wNi0yLjYzIDEuOTgtNC4zOCAyLjAyLS4wNy4wNi0uMDcuMDYgMCAwIDAtLjQtLjAyLS43OC0uMzUtMS4wNi0uMy0uMjMtLjMyLS42LS4yNC0uOS4zMy0xLjI1LjEzLTIuNTIuMTgtMy44LS4zNC0uMS0xLjEuMTgtMS4yLjJsLS40NC4yMy0uNTIuNDRjLS4yMi4xNC0yLjYgMS41Ny0yLjgzIDIuMS0uNjMgMS4zIDEuNDIgNC41NSAxLjczIDQuOTIgMi40IDQuMiAzLjczIDIuMzYgNS45OC44IDEuMi0uNzggMi43OC0zLjE2IDQuMTUtMy42Ni4xOC0uNjguNDYtMS4zNC4zMi0yLjA1LS44Ni4wMy0xLjYzLjEtMi40Ljc1eiIvPjxwYXRoIGZpbGwtb3BhY2l0eT0iLjg1IiBmaWxsPSIjZmZkODE1IiBzdHJva2Utb3BhY2l0eT0iMCIgc3Ryb2tlPSIjMDAwIiBkPSJNMTQ5Ny40NiA0NDcuNTRoLjAydi0uMDJsLS4wMi4wMnoiLz48cGF0aCBmaWxsLW9wYWNpdHk9Ii44NSIgZmlsbD0iI2ZmZmYyNSIgc3Ryb2tlLW9wYWNpdHk9IjAiIHN0cm9rZT0iIzAwMCIgZD0iTTE1MDQuNjcgNDQ5LjUzYy41Mi4yNyAxIC41NiAxIDEuMjQtLjk2LjA2LTEuOC4xMy0yLjY0Ljg1LTEuMzUgMS4xNS0zLjE3IDIuODgtNS4xIDIuOTMuMS0uNjMtLjgyLTEuNTMtLjU3LTIuNi4zLTEuMzguMzYtMy4wNC40LTQuNDMuOS0uMzQgMS43LS4wMyAyLjUzLjIzLjMzLjIuNjcuNCAxIC42MmwxLjguNjhjLjQ4LjMyIDEuMDQuMzYgMS41Ny40OHoiLz48cGF0aCBmaWxsLW9wYWNpdHk9Ii45IiBmaWxsPSIjZmZmIiBzdHJva2Utb3BhY2l0eT0iMCIgc3Ryb2tlPSIjMDAwIiBkPSJNMTQ5NS4yIDQ0NS4yNGgyLjR2Mi40aC0yLjR2LTIuNHpNMTUwMi40IDQ0NS4yNGgyLjR2Mi40aC0yLjR2LTIuNHoiLz48cGF0aCBmaWxsLW9wYWNpdHk9IjAiIGZpbGw9IiM4NjJmMGYiIHN0cm9rZS13aWR0aD0iMCIgc3Ryb2tlLW9wYWNpdHk9IjAiIHN0cm9rZT0iIzAwMCIgZD0iTTE0NjMuMDIgNTIyLjgzaDc2LjM1Yy45NSAwIDEuNDMuNDggMS40MyAxLjQzdjQuM2MwIC45Ni0uNDggMS40NC0xLjQzIDEuNDRoLTc2LjM1Yy0uOTUgMC0xLjQyLS40OC0xLjQyLTEuNDN2LTQuM2MwLS45Ni40Ny0xLjQ0IDEuNDItMS40NHoiLz48dXNlIHRyYW5zZm9ybT0ibWF0cml4KDEsMCwwLDEsMTQxMCw1MzkpIHRyYW5zbGF0ZSg0My43NjU0MzIwOTg3NjU0NCAxNy43Nzc3Nzc3Nzc3Nzc3OCkiIHhsaW5rOmhyZWY9IiN6Ii8+PHVzZSB0cmFuc2Zvcm09Im1hdHJpeCgxLDAsMCwxLDE0MTAsNTM5KSB0cmFuc2xhdGUoODMuMjA5ODc2NTQzMjA5ODcgMTcuNzc3Nzc3Nzc3Nzc3NzgpIiB4bGluazpocmVmPSIjQSIvPjxwYXRoIGZpbGw9IiMyMTUwMDAiIHN0cm9rZS1vcGFjaXR5PSIwIiBzdHJva2U9IiMwMDAiIGQ9Ik0xNTE5LjE4IDcyNi4xaC0zMi45NmMzLjk3IDE0LjMzLTEuMzQgMTYuNC0yNC42MiAxNi40djcuNWg3OS4ydi03LjVjLTIzLjMgMC0yNS41OC0yLjA3LTIxLjYyLTE2LjQiLz48cGF0aCBmaWxsPSIjNDc3NzAwIiBzdHJva2Utb3BhY2l0eT0iMCIgc3Ryb2tlPSIjMDAwIiBkPSJNMTU1Mi44IDY0MGgtMTA2LjMyYy0zLjYgMC02LjQ4IDMuMTgtNi40OCA2Ljh2NzQuOTVjMCAzLjU0IDIuODggNi43MyA2LjQ4IDYuNzNoMTA2LjMyYzMuNiAwIDcuMi0zLjIgNy4yLTYuNzNWNjQ2LjhjMC0zLjYyLTMuNi02LjgtNy4yLTYuOCIvPjxwYXRoIGZpbGwtb3BhY2l0eT0iLjIiIGZpbGw9IiNhNmQ1MzQiIHN0cm9rZS1vcGFjaXR5PSIwIiBzdHJva2U9IiMwMDAiIGQ9Ik0xNTUyLjgyIDY0MGgtMTA2LjI4Yy0zLjYgMC02LjU0IDMuMi02LjU0IDYuODJ2NzQuOTNjMCAzLjU0IDIuOTMgNi43MyA2LjU0IDYuNzNoMi41TDE1NTIuOCA2NDB6Ii8+PHBhdGggZmlsbD0iIzAwOGEwZSIgc3Ryb2tlLW9wYWNpdHk9IjAiIHN0cm9rZT0iIzAwMCIgZD0iTTE1NTAuNCA2NDkuNTd2NjkuMzRoLTEwMC44di02OS4zM2gxMDAuOHoiLz48cGF0aCBmaWxsPSIjNDc3NzAwIiBzdHJva2Utb3BhY2l0eT0iMCIgc3Ryb2tlPSIjMDAwIiBkPSJNMTQ2MS42IDc0Mi44M2g3OS4yVjc1MGgtNzkuMnYtNy4xN3oiLz48cGF0aCBmaWxsPSIjNWZhYTAwIiBzdHJva2Utb3BhY2l0eT0iMCIgc3Ryb2tlPSIjMDAwIiBkPSJNMTUwMS4yNCA2NDVjMCAuOTUtLjc2IDEuNy0xLjcgMS43cy0xLjctLjc1LTEuNy0xLjdjMC0uOTMuNzYtMS43IDEuNy0xLjdzMS43Ljc3IDEuNyAxLjciLz48cGF0aCBmaWxsLW9wYWNpdHk9Ii40IiBmaWxsPSIjYTZkNTM0IiBzdHJva2Utb3BhY2l0eT0iMCIgc3Ryb2tlPSIjMDAwIiBkPSJNMTUwNC4xIDY2OC4zbC0xLjI0Ljc1LTEuMDYtMS45M2MtLjQtLjc0LS40Ny0xLjM3LS4yLTIuMDMuMjUtLjU4Ljc0LS45IDEuMzUtLjloLjE0Yy42Ny4wNSAxLjM1Ljc2IDEuNTYgMS40LjIyLjY1LjIyIDIuMi0uNTcgMi43eiIvPjxwYXRoIGZpbGwtb3BhY2l0eT0iLjg1IiBmaWxsPSIjYTJkMTJlIiBzdHJva2Utb3BhY2l0eT0iMCIgc3Ryb2tlPSIjMDAwIiBkPSJNMTQ5Mi4xNCA3MDUuNGMuMDItLjA2LTYuMDctOS44LTUuNy0xMS40NiAyLjg2LTEzLjU4IDYuMjctMTUuNTggNy41Mi0xOC40MiAxLjI1LTIuODcuNTItNS41MiAyLTUuNTYgMS41LS4wNCA1LjkuMyA2LjkzLjY1IDEuMDUuMzYgMi41NiAxLjQzIDMuNDIgMy43NyAxLjEyIDIuMTUgMi4yNCA0LjMgMi42IDYuNzIuMDMuMjIuMTMuNDUuMy42IDIuOCAzLjEgMy4zOCA2LjkgMy4yIDEwLjktLjA2IDEtLjIyIDIuNS0uMzUgMy4wMy0uMTMuNS0zLjk1IDEyLjg1LTEwIDEyLjctNi0uMTYtOS4yLTIuMzgtOS45My0yLjkyeiIvPjxwYXRoIGZpbGwtb3BhY2l0eT0iLjg1IiBmaWxsPSIjYTY2MjAwIiBzdHJva2Utb3BhY2l0eT0iMCIgc3Ryb2tlPSIjMDAwIiBkPSJNMTUyNC41NSA3MDIuNTJjLTIuMi0uMS0zLjM3LTEuNDItMy40LTIuNyAwLTEuNDYuNjMtMy4zMy0xLjUyLTMuNS0yLjE1LS4yLTYuNTQtLjQzLTcuNzItLjY0LTIuNTYtLjQ3LTIuNjguNTctMi43MyAxLjMtLjAyLjM2LjMgMy44NC0uMDQgNS4yLjAyLjU3IDAgMS4xNS0uMSAxLjczLS4yNiAxLjYtLjQzIDMuMi0uNjUgNC43OCAwIC43Ni0uMDIgMS41My0uMDQgMi4zIDEuODcgMi43NSA1LjUgMi44NiA3Ljc1LjQ4IDIuMS0yLjE1IDQuNjUtMy42IDcuMzQtNC45Ljc1LS4zOCAxLjQ3LS45MiAxLjg3LTIgLjQyLTEuMDUuMDQtMi0uNzUtMi4wM3oiLz48cGF0aCBmaWxsLW9wYWNpdHk9Ii44NSIgc3Ryb2tlLW9wYWNpdHk9IjAiIHN0cm9rZT0iIzAwMCIgZD0iTTE0OTUuMjMgNzAxLjIyYy0uMyAxLjQ4LTEuOTIgMi43Ni0yLjc1IDIuNjYtLjUzLS4zLTEuOTItMi4xMi0yLjIzLTIuNTYtLjktMS4zOC00LjktNy4xLTYuMDctNi42Ni0uMzguMDUtLjYuMy0uOC42LS4wNyAwLS4xNC4wNC0uMjIuMS0uNi0xLjMtLjUzLTIuNTcuMS0zLjggMS41LTIuNjYgMi4xNi01LjQyIDIuOTItOC4zOC4yNi0xLjA0Ljg3LTEuODggMS41LTIuNjYgMS4xOC0xLjQ4IDEuMTQtMyAyLjM1LTQuNS44LS45MyAxLjQ3LTEuOSAxLjQtMy4xNC0uMjMtMy40Ni0uNjUtNi44LS41NC0xMC4yNi4xNS0zLjM1IDMuMTMtNi4xNiA2LjQ1LTcuNCAzLjQzLTEuMjcgNi42Ny0uNjMgOS40MyAxLjgzIDIuMTggMS45MyAzLjEzIDQuNSAzLjMyIDcuMzUgMCAuNTQuMDQgMS4wMy4wNCAxLjU4LS4yNyA1LjM3IDIgOS43NSA1LjQzIDEzLjY1IDMuMzIgMy43NSA0LjYgOC4yMyA0LjkgMTMuMDYuMDggMS4yNy0uMzQgMi40Ni0uODcgMy42LS43IDEuNjctMS43MyAyLjY1LTIuNjcgMy4xLS45NS40NC00LjY4LjctMy45Ny0xLjczLjM0LTEuMTguNDItMS43Mi0xLjA1LTIuMDIuMDgtMSAuMjctMi4wMi4zLTMgLjI0LTQtLjQ4LTcuMTUtMy41NC0xMC0uOS0uOS0uMDMtMS0uMDctMS44LS4xLTIuMTYtMS4zMy00LjI4LTIuNDYtNi40NS0uMTItLjQtLjMtLjc0LS41Ny0xLjAzLjA4LS4zNS0uMS0uNi0uMjYtLjg0LjItLjcuNDYtMS4zMy4zNS0yLjA3IDAtLjYtNi40Mi0uOS03LjItLjU0LS4zNS0uMTUtMy43NS0uMy0zLjc1LS4yNS0uNDUuMzUtLjguODQtLjk0IDEuMzgtLjEuNS43MiAxLjU4LjggMS43M2wtLjEyIDIuMjItLjIzLjc0Yy0uNS44My0xLjA4IDEuNjctMS42IDIuNS0uNDYuOC0xLjAzIDEuNTQtMS4xIDIuNDctLjM0Ljk1Ljk4IDIuMjMtLjIzIDMuMzctMS4yIDEuMDgtMi40NSA2LjQ1LTIuNDUgNy43My0uMDQgMS4zOCAyLjUgNC41IDMuNDMgNS4zOCAxLjc0IDEuNjcgMy4zMiAyLjI3IDIuOTggNC4wNHpNMTQ5NCA3MDYuMzNjMi42LjczIDkuODcuOTQgMTMuNC0yLjU4bDEuNzgtMS42MmMwIC42LS4wMyAxLjE3LS4xMyAxLjc2LS4yNCAxLjU3LS40MiAzLjE2LS42MyA0Ljc0bC0uMDUgMi4zMmMtMy4yNC0uOS04LjEzLTEuMi05LjYtMS4xMy0xLjQ1LjA4LTMuNDQuNDQtNC42Ljc0bC0uMTYtNC4yNHoiLz48cGF0aCBmaWxsLW9wYWNpdHk9Ii44NSIgZmlsbD0iIzg0N2IwMCIgc3Ryb2tlLW9wYWNpdHk9IjAiIHN0cm9rZT0iIzAwMCIgZD0iTTE1MjEuMzYgNzAwLjIybC0uMTYtLjIzLjE2LjIyek0xNTIwLjQgNjk2Ljg3bC0uMi0uMi4yLjJ6Ii8+PHBhdGggZmlsbC1vcGFjaXR5PSIuODUiIGZpbGw9IiMzMzM1MDAiIHN0cm9rZS1vcGFjaXR5PSIwIiBzdHJva2U9IiMwMDAiIGQ9Ik0xNDkyLjUzIDcwNC4xN2wuMS4xNy0uMS0uMTd6Ii8+PHBhdGggZmlsbC1vcGFjaXR5PSIuODUiIGZpbGw9IiM4YTdmMDAiIHN0cm9rZS1vcGFjaXR5PSIwIiBzdHJva2U9IiMwMDAiIGQ9Ik0xNTIwLjIgNjk2LjY3eiIvPjxwYXRoIGZpbGwtb3BhY2l0eT0iLjg1IiBmaWxsPSIjYTY2MjAwIiBzdHJva2Utb3BhY2l0eT0iMCIgc3Ryb2tlPSIjMDAwIiBkPSJNMTQ5MS40NyA3MDIuNjJjLTEuODgtMS45NS0zLjMzLTQuMy00LjY2LTYuOTUtLjY4LTEuNC0yLjgzLTIuNS0zLjYtLjMyLS44MiAyLjItMi4wOCAzLjA4LTQuMTUgMi44LTEuNTItLjItMi45NC45Ny0yLjMgMi44OC43IDIuMDQgMS40NSAzLjY1LS4wNCA1LjEtMS41IDEuNDMtLjg3IDIuOTIgMS4yNCAzLjIgMi4xLjMgNy42NSAxLjU0IDEwLjg1IDMuMjMgMy4yIDEuNjggNS43NC0xLjUgNi4xLTIuNDQuODMtMi4zMy0xLjUzLTUuNTUtMy40My03LjV6Ii8+PHBhdGggZmlsbC1vcGFjaXR5PSIuODUiIHN0cm9rZS1vcGFjaXR5PSIwIiBzdHJva2U9IiMwMDAiIGQ9Ik0xNDk4LjYgNjc5Ljc2Yy0xLjggMC0zLTEuNy0zLjg0LTMuMTggMCAwLTIuOC0zLjg4LTEuNzgtNi4wMy4xNS0uMy4zOC0uOCAzLjI0LTIuNThsLjUzLS40NS41Mi0uMjYuMzItLjEzYy40LS4xLjgzLS4yNCAxLjI2LS4yNGguMmwuMzcuMDguODYuMjggNi45NCAyLjU3LjIgMS4wMmMuMTYuODUtLjA1IDEuNi0uMjMgMi4xOGwtLjI1IDEtLjYuMjJjLS41Mi4yLTEuMzUgMS4wNy0yIDEuNzgtLjY2LjctMS4yOCAxLjM2LTEuOSAxLjc2LS4yNS4xNi0uNS4zNC0uNzMuNTItMSAuNzMtMS45MyAxLjQ0LTMuMSAxLjQ0eiIvPjxwYXRoIGZpbGwtb3BhY2l0eT0iLjg1IiBmaWxsPSIjYTY2MjAwIiBzdHJva2Utb3BhY2l0eT0iMCIgc3Ryb2tlPSIjMDAwIiBkPSJNMTUwMy4yNSA2NzEuMjVjLTEuMjMgMS4wNi0yLjYzIDEuOTgtNC4zOCAyLjAyLS4wNy4wNi0uMDcuMDYgMCAwIDAtLjQtLjAyLS43OC0uMzUtMS4wNi0uMy0uMjMtLjMyLS42LS4yNC0uOS4zMy0xLjI1LjEzLTIuNTIuMTgtMy44LS4zNC0uMS0xLjEuMTgtMS4yLjJsLS40NC4yMy0uNTIuNDRjLS4yMi4xNC0yLjYgMS41Ny0yLjgzIDIuMS0uNjMgMS4zIDEuNDIgNC41NSAxLjczIDQuOTIgMi40IDQuMiAzLjczIDIuMzYgNS45OC44IDEuMi0uNzggMi43OC0zLjE2IDQuMTUtMy42Ni4xOC0uNjguNDYtMS4zNC4zMi0yLjA1LS44Ni4wMy0xLjYzLjEtMi40Ljc1eiIvPjxwYXRoIGZpbGwtb3BhY2l0eT0iLjg1IiBmaWxsPSIjOGE3ZjAwIiBzdHJva2Utb3BhY2l0eT0iMCIgc3Ryb2tlPSIjMDAwIiBkPSJNMTQ5Ny40NiA2NjcuNTRoLjAydi0uMDJsLS4wMi4wMnoiLz48cGF0aCBmaWxsLW9wYWNpdHk9Ii44NSIgZmlsbD0iI2EzYTcwMCIgc3Ryb2tlLW9wYWNpdHk9IjAiIHN0cm9rZT0iIzAwMCIgZD0iTTE1MDQuNjcgNjY5LjUzYy41Mi4yNyAxIC41NiAxIDEuMjQtLjk2LjA2LTEuOC4xMy0yLjY0Ljg1LTEuMzUgMS4xNS0zLjE3IDIuODgtNS4xIDIuOTMuMS0uNjMtLjgyLTEuNTMtLjU3LTIuNi4zLTEuMzguMzYtMy4wNC40LTQuNDMuOS0uMzQgMS43LS4wMyAyLjUzLjIzLjMzLjIuNjcuNCAxIC42MmwxLjguNjhjLjQ4LjMyIDEuMDQuMzYgMS41Ny40OHoiLz48cGF0aCBmaWxsLW9wYWNpdHk9Ii45IiBmaWxsPSIjYTZkNTM0IiBzdHJva2Utb3BhY2l0eT0iMCIgc3Ryb2tlPSIjMDAwIiBkPSJNMTQ5NS4yIDY2NS4yNGgyLjR2Mi40aC0yLjR2LTIuNHpNMTUwMi40IDY2NS4yNGgyLjR2Mi40aC0yLjR2LTIuNHoiLz48cGF0aCBmaWxsLW9wYWNpdHk9IjAiIHN0cm9rZS13aWR0aD0iMCIgc3Ryb2tlLW9wYWNpdHk9IjAiIHN0cm9rZT0iIzAwMCIgZD0iTTE0NjMuMDIgNzQyLjgzaDc2LjM1Yy45NSAwIDEuNDMuNDggMS40MyAxLjQzdjQuM2MwIC45Ni0uNDggMS40NC0xLjQzIDEuNDRoLTc2LjM1Yy0uOTUgMC0xLjQyLS40OC0xLjQyLTEuNDN2LTQuM2MwLS45Ni40Ny0xLjQ0IDEuNDItMS40NHoiLz48Zz48dXNlIHRyYW5zZm9ybT0ibWF0cml4KDEsMCwwLDEsMTQxMCw3NTkpIHRyYW5zbGF0ZSg0My43NjU0MzIwOTg3NjU0NCAxNy43Nzc3Nzc3Nzc3Nzc3OCkiIHhsaW5rOmhyZWY9IiN6Ii8+PHVzZSB0cmFuc2Zvcm09Im1hdHJpeCgxLDAsMCwxLDE0MTAsNzU5KSB0cmFuc2xhdGUoODMuMjA5ODc2NTQzMjA5ODcgMTcuNzc3Nzc3Nzc3Nzc3NzgpIiB4bGluazpocmVmPSIjQSIvPjwvZz48cGF0aCBmaWxsPSJub25lIiBzdHJva2U9IiMzYTQxNGEiIGQ9Ik0xMTkwLjUgNDM1SDEzMDlhNiA2IDAgMCAwIDYtNlYyNDFhNiA2IDAgMCAxIDYtNmgxMDIuNjIiLz48cGF0aCBmaWxsPSIjM2E0MTRhIiBzdHJva2Utd2lkdGg9Ii4wNSIgc3Ryb2tlPSIjM2E0MTRhIiBkPSJNMTE5MC41IDQzNS40OGgtLjV2LS45NmguNXoiLz48cGF0aCBmaWxsPSIjM2E0MTRhIiBzdHJva2U9IiMzYTQxNGEiIGQ9Ik0xNDM4LjM4IDIzNWwtMTQuMjYgNC42M3YtOS4yNnoiLz48cGF0aCBmaWxsPSJub25lIiBzdHJva2U9IiMzYTQxNGEiIGQ9Ik0xMTkwLjUgNDM1SDEzMDlhNiA2IDAgMCAxIDYgNnYyOGE2IDYgMCAwIDAgNiA2aDEwMi42MiIvPjxwYXRoIGZpbGw9IiMzYTQxNGEiIHN0cm9rZS13aWR0aD0iLjA1IiBzdHJva2U9IiMzYTQxNGEiIGQ9Ik0xMTkwLjUgNDM1LjQ4aC0uNXYtLjk2aC41eiIvPjxwYXRoIGZpbGw9IiMzYTQxNGEiIHN0cm9rZT0iIzNhNDE0YSIgZD0iTTE0MzguMzggNDc1bC0xNC4yNiA0LjYzdi05LjI2eiIvPjxwYXRoIGZpbGw9Im5vbmUiIHN0cm9rZT0iIzNhNDE0YSIgZD0iTTExOTAuNSA0MzVIMTMwOWE2IDYgMCAwIDEgNiA2djI0OGE2IDYgMCAwIDAgNiA2aDEwMi42MiIvPjxwYXRoIGZpbGw9IiMzYTQxNGEiIHN0cm9rZS13aWR0aD0iLjA1IiBzdHJva2U9IiMzYTQxNGEiIGQ9Ik0xMTkwLjUgNDM1LjQ4aC0uNXYtLjk2aC41eiIvPjxwYXRoIGZpbGw9IiMzYTQxNGEiIHN0cm9rZT0iIzNhNDE0YSIgZD0iTTE0MzguMzggNjk1bC0xNC4yNiA0LjYzdi05LjI2eiIvPjxkZWZzPjxwYXRoIGlkPSJCIiBkPSJNMTIxNi0xMDExYy0xIDI5Ny0yMDIgNDQxLTUxMiA0NDFIMzYxVjBIMTY5di0xNDU2aDUzN2MyOTctNiA1MTAgMTY0IDUxMCA0NDV6bS0xOTIgMmMxLTE3OC0xMjYtMjg4LTMwNy0yODlIMzYxdjU3MWgzNDVjMTk2IDEgMzE4LTkyIDMxOC0yODIiLz48cGF0aCBpZD0iQyIgZD0iTTU4OS05NDVjLTEzMSAwLTIxOSA4MS0yNjQgMTc0VjBIMTQwdi0xNTM2aDE4NXY1ODVjODItMTAxIDE4OS0xNTEgMzIwLTE1MSAyMjkgMCAzNDYgMTI5IDM0NiAzODdWMEg4MDZ2LTcxNmMtMi0xNTMtNjUtMjI5LTIxNy0yMjkiLz48cGF0aCBpZD0iRCIgZD0iTTQ5NC0yNzFsMjUyLTgxMWgxOThMNTA5IDE2N0M0MjUgMzgxIDI5OSA0NzQgODQgNDIxVjI3MWMxNjcgMTYgMjQyLTM3IDI4My0xNzNsNDEtMTEwTDIyLTEwODJoMjAyIi8+PHBhdGggaWQ9IkUiIGQ9Ik01MzgtMTMxYzEyMSAwIDIzMi00OSAyMzItMTU2IDAtNTAtMjAtODgtNTYtMTE3LTczLTYwLTMzNC05Mi00MjAtMTQzLTkyLTU1LTE2Mi0xMTAtMTYyLTIzOCAwLTE5MCAxOTItMzE3IDQwMC0zMTcgMjIzIDAgNDE0IDEyOSA0MTMgMzM4SDc1OWMwLTEwOC0xMTAtMTg2LTIyNy0xODYtMTE5IDAtMjE1IDUzLTIxNSAxNTkgMCA0NSAxOCA3OCA1MyAxMDEgNzYgNTIgMzMxIDkwIDQxNiAxMzkgOTggNTcgMTY5IDExNSAxNjkgMjUxQzk1NS05MiA3NjAgMjAgNTM4IDIwYy0xNzYgMC0zMTQtNjgtMzg2LTE3NC0zOC01NS01Ny0xMTUtNTctMTc5aDE4NWM2IDEyOSAxMTYgMjAyIDI1OCAyMDIiLz48cGF0aCBpZD0iRiIgZD0iTTM0MSAwSDE1NnYtMTA4MmgxODVWMHptLTkxLTEyNjRjLTY4IDAtMTA4LTQyLTEwOS0xMDUgMC02MiA0MS0xMDcgMTA5LTEwN3MxMTAgNDQgMTEwIDEwNy00MiAxMDUtMTEwIDEwNSIvPjxwYXRoIGlkPSJHIiBkPSJNMjc3LTU1NWMwIDI0NCA3NyA0MjAgMjk3IDQyNCAxMjcgMiAyNDktOTMgMjU1LTIxMGgxNzVDOTgwLTEyNyA4MDUgMjAgNTc0IDIwIDI1OCAyMCA4MS0yMjIgOTItNTYyYzExLTMxOSAxNjQtNTMzIDQ4MS01NDAgMjM3LTUgNDI2IDE2NSA0MzEgMzkySDgyOWMtNy0xMzMtMTE1LTI0Mi0yNTYtMjQwLTIwOSA0LTI5NiAxNjYtMjk2IDM5NSIvPjxwYXRoIGlkPSJIIiBkPSJNNTYxLTExMDJjMjM4LTQgNDAzIDEyNiA0MDMgMzUxdjQ5OGMwIDk5IDEzIDE3OCAzOCAyMzdWMEg4MDhjLTExLTIxLTE5LTU5LTI2LTExNEM2OTYtMjUgNTkzIDIwIDQ3NCAyMGMtMTk5IDAtMzY4LTEzMC0zNjUtMzIwIDQtMjUxIDIxNC0zNTkgNDkwLTM1NmgxODB2LTg1Yy0xLTEzNS04Ni0yMTItMjI5LTIxMi0xMTUgMC0yMzIgNjctMjMzIDE3MUgxMzFjMjAtMjA1IDIwNi0zMTYgNDMwLTMyMHpNMjk0LTMyNmMwIDExNyA5MCAxODUgMjA3IDE4NSAxMjIgMCAyMzktNzUgMjc4LTE2MnYtMjIySDYzNGMtMjI3IDAtMzQwIDY2LTM0MCAxOTkiLz48cGF0aCBpZD0iSSIgZD0iTTM0MSAwSDE1NnYtMTUzNmgxODVWMCIvPjxnIGlkPSJhIj48dXNlIHhsaW5rOmhyZWY9IiNCIiB0cmFuc2Zvcm09Im1hdHJpeCgwLjAwODc4OTA2MjUsMCwwLDAuMDA4Nzg5MDYyNSwwLDApIi8+PHVzZSB4bGluazpocmVmPSIjQyIgdHJhbnNmb3JtPSJtYXRyaXgoMC4wMDg3ODkwNjI1LDAsMCwwLjAwODc4OTA2MjUsMTEuMzU1NDY4NzUsMCkiLz48dXNlIHhsaW5rOmhyZWY9IiNEIiB0cmFuc2Zvcm09Im1hdHJpeCgwLjAwODc4OTA2MjUsMCwwLDAuMDA4Nzg5MDYyNSwyMS4yNjk1MzEyNSwwKSIvPjx1c2UgeGxpbms6aHJlZj0iI0UiIHRyYW5zZm9ybT0ibWF0cml4KDAuMDA4Nzg5MDYyNSwwLDAsMC4wMDg3ODkwNjI1LDI5Ljc4NjEzMjgxMjUsMCkiLz48dXNlIHhsaW5rOmhyZWY9IiNGIiB0cmFuc2Zvcm09Im1hdHJpeCgwLjAwODc4OTA2MjUsMCwwLDAuMDA4Nzg5MDYyNSwzOS4wNjczODI4MTI1LDApIi8+PHVzZSB4bGluazpocmVmPSIjRyIgdHJhbnNmb3JtPSJtYXRyaXgoMC4wMDg3ODkwNjI1LDAsMCwwLjAwODc4OTA2MjUsNDMuNDM1NTQ2ODc1LDApIi8+PHVzZSB4bGluazpocmVmPSIjSCIgdHJhbnNmb3JtPSJtYXRyaXgoMC4wMDg3ODkwNjI1LDAsMCwwLjAwODc4OTA2MjUsNTIuODU3NDIxODc1LDApIi8+PHVzZSB4bGluazpocmVmPSIjSSIgdHJhbnNmb3JtPSJtYXRyaXgoMC4wMDg3ODkwNjI1LDAsMCwwLjAwODc4OTA2MjUsNjIuNjQ4NDM3NSwwKSIvPjwvZz48cGF0aCBpZD0iSiIgZD0iTTM2Mi0xNTdoNjkwVjBIMTY5di0xNDU2aDE5M3YxMjk5Ii8+PHBhdGggaWQ9IksiIGQ9Ik01ODQgMjBDMjc4IDI2IDgxLTIyNyA5MS01NTFjMTAtMzIwIDE3NS01NDUgNDkxLTU1MSAzMDgtNSA1MDMgMjQ3IDQ5NCA1NzMtOSAzMjItMTc1IDU0My00OTIgNTQ5em0tMi05NzBjLTIwOCAwLTMwNSAxODUtMzA1IDQyMSAwIDIxNiAxMDYgMzk4IDMwNyAzOTggMjExIDAgMzA3LTE4NiAzMDctNDIwIDAtMjE0LTEwOS0zOTktMzA5LTM5OSIvPjxwYXRoIGlkPSJMIiBkPSJNNTIxIDIwQzI0MCAyMCA5Ni0yMzkgOTYtNTUwYzAtMzAzIDE0Ny01NTIgNDI3LTU1MiAxMzIgMCAyMzUgNDcgMzA5IDE0MGw5LTEyMGgxNjlWLTI2YzQgMjc3LTE4MyA0NTQtNDU5IDQ1Mi0xNjUtMS0zMzQtODEtNDAwLTE4N2w5Ni0xMTFjNzkgOTggMTc2IDE0NyAyOTEgMTQ3IDE4MCAxIDI4OC0xMDkgMjg2LTI5MHYtOTNDNzUwLTIzIDY0OSAyMCA1MjEgMjB6bTQ4LTk2NWMtMjA5IDAtMjg3IDE3OC0yODcgNDE2IDAgMjE3IDg2IDM5MiAyODUgMzkyIDExNyAwIDIwMi01MyAyNTctMTU5di00OTRjLTU3LTEwMy0xNDItMTU1LTI1NS0xNTUiLz48ZyBpZD0iYiI+PHVzZSB4bGluazpocmVmPSIjSiIgdHJhbnNmb3JtPSJtYXRyaXgoMC4wMDg3ODkwNjI1LDAsMCwwLjAwODc4OTA2MjUsMCwwKSIvPjx1c2UgeGxpbms6aHJlZj0iI0siIHRyYW5zZm9ybT0ibWF0cml4KDAuMDA4Nzg5MDYyNSwwLDAsMC4wMDg3ODkwNjI1LDkuNjg1NTQ2ODc1LDApIi8+PHVzZSB4bGluazpocmVmPSIjTCIgdHJhbnNmb3JtPSJtYXRyaXgoMC4wMDg3ODkwNjI1LDAsMCwwLjAwODc4OTA2MjUsMTkuOTUxMTcxODc1LDApIi8+PHVzZSB4bGluazpocmVmPSIjRiIgdHJhbnNmb3JtPSJtYXRyaXgoMC4wMDg3ODkwNjI1LDAsMCwwLjAwODc4OTA2MjUsMzAuMDQ5ODA0Njg3NSwwKSIvPjx1c2UgeGxpbms6aHJlZj0iI0ciIHRyYW5zZm9ybT0ibWF0cml4KDAuMDA4Nzg5MDYyNSwwLDAsMC4wMDg3ODkwNjI1LDM0LjQxNzk2ODc1LDApIi8+PHVzZSB4bGluazpocmVmPSIjSCIgdHJhbnNmb3JtPSJtYXRyaXgoMC4wMDg3ODkwNjI1LDAsMCwwLjAwODc4OTA2MjUsNDMuODM5ODQzNzUsMCkiLz48dXNlIHhsaW5rOmhyZWY9IiNJIiB0cmFuc2Zvcm09Im1hdHJpeCgwLjAwODc4OTA2MjUsMCwwLDAuMDA4Nzg5MDYyNSw1My42MzA4NTkzNzUsMCkiLz48L2c+PHBhdGggaWQ9Ik0iIGQ9Ik0xMDggMEg3MEwxLTE5MGgzNEw4OS0yNWw1Ni0xNjVoMzQiLz48cGF0aCBpZD0iTiIgZD0iTTIxMC0xNjljLTY3IDMtMzggMTA1LTQ0IDE2OWgtMzF2LTEyMWMwLTI5LTUtNTAtMzUtNDhDMzQtMTY1IDYyLTY1IDU2IDBIMjVsLTEtMTkwaDMwYzEgMTAtMSAyNCAyIDMyIDEwLTQ0IDk5LTUwIDEwNyAwIDExLTIxIDI3LTM1IDU4LTM2IDg1LTIgNDcgMTE5IDU1IDE5NGgtMzF2LTEyMWMwLTI5LTUtNDktMzUtNDgiLz48cGF0aCBpZD0iTyIgZD0iTTExNS0xOTRjNTMgMCA2OSAzOSA3MCA5OCAwIDY2LTIzIDEwMC03MCAxMDBDODQgMyA2Ni03IDU2LTMwTDU0IDBIMjNsMS0yNjFoMzJ2MTAxYzEwLTIzIDI4LTM0IDU5LTM0em0tOCAxNzRjNDAgMCA0NS0zNCA0NS03NSAwLTQwLTUtNzUtNDUtNzQtNDIgMC01MSAzMi01MSA3NiAwIDQzIDEwIDczIDUxIDczIi8+PHBhdGggaWQ9IlAiIGQ9Ik0xMTQtMTYzQzM2LTE3OSA2MS03MiA1NyAwSDI1bC0xLTE5MGgzMGMxIDEyLTEgMjkgMiAzOSA2LTI3IDIzLTQ5IDU4LTQxdjI5Ii8+PHBhdGggaWQ9IlEiIGQ9Ik0xMDEtMjUxYzY4IDAgODUgNTUgODUgMTI3UzE2NiA0IDEwMCA0QzMzIDQgMTQtNTIgMTQtMTI0YzAtNzMgMTctMTI3IDg3LTEyN3ptLTEgMjI5YzQ3IDAgNTQtNDkgNTQtMTAycy00LTEwMi01My0xMDJjLTUxIDAtNTUgNDgtNTUgMTAyIDAgNTMgNSAxMDIgNTQgMTAyIi8+PGcgaWQ9ImMiPjx1c2UgeGxpbms6aHJlZj0iI00iIHRyYW5zZm9ybT0ibWF0cml4KDAuMDYxNzI4Mzk1MDYxNzI4MzksMCwwLDAuMDYxNzI4Mzk1MDYxNzI4MzksMCwwKSIvPjx1c2UgeGxpbms6aHJlZj0iI04iIHRyYW5zZm9ybT0ibWF0cml4KDAuMDYxNzI4Mzk1MDYxNzI4MzksMCwwLDAuMDYxNzI4Mzk1MDYxNzI4MzksMTEuMTExMTExMTExMTExMTEsMCkiLz48dXNlIHhsaW5rOmhyZWY9IiNPIiB0cmFuc2Zvcm09Im1hdHJpeCgwLjA2MTcyODM5NTA2MTcyODM5LDAsMCwwLjA2MTcyODM5NTA2MTcyODM5LDI5LjU2NzkwMTIzNDU2NzksMCkiLz48dXNlIHhsaW5rOmhyZWY9IiNQIiB0cmFuc2Zvcm09Im1hdHJpeCgwLjA2MTcyODM5NTA2MTcyODM5LDAsMCwwLjA2MTcyODM5NTA2MTcyODM5LDQxLjkxMzU4MDI0NjkxMzU3NSwwKSIvPjx1c2UgeGxpbms6aHJlZj0iI1EiIHRyYW5zZm9ybT0ibWF0cml4KDAuMDYxNzI4Mzk1MDYxNzI4MzksMCwwLDAuMDYxNzI4Mzk1MDYxNzI4MzksNDkuMjU5MjU5MjU5MjU5MjUsMCkiLz48L2c+PHBhdGggaWQ9IlIiIGQ9Ik0yNyAwdi0yN2g2NHYtMTkwbC01NiAzOXYtMjlsNTgtNDFoMjl2MjIxaDYxVjBIMjciLz48cGF0aCBpZD0iUyIgZD0iTTMzIDB2LTM4aDM0VjBIMzMiLz48cGF0aCBpZD0iVCIgZD0iTTY0IDBjMy05OCA0OC0xNTkgODgtMjIxSDE4di0yN2gxNjR2MjZDMTQzLTE1NyA5OC0xMDEgOTcgMEg2NCIvPjxwYXRoIGlkPSJVIiBkPSJNMTI2LTEyN2MzMyA2IDU4IDIwIDU4IDU5IDAgODgtMTM5IDkyLTE2NCAyOS0zLTgtNS0xNi02LTI1bDMyLTNjNiAyNyAyMSA0NCA1NCA0NCAzMiAwIDUyLTE1IDUyLTQ2IDAtMzgtMzYtNDYtNzktNDN2LTI4YzM5IDEgNzItNCA3Mi00MiAwLTI3LTE3LTQzLTQ2LTQzLTI4IDAtNDcgMTUtNDkgNDFsLTMyLTNjNi00MiAzNS02MyA4MS02NCA0OC0xIDc5IDIxIDc5IDY1IDAgMzYtMjEgNTItNTIgNTkiLz48cGF0aCBpZD0iViIgZD0iTTAgNGw3Mi0yNjVoMjhMMjggNEgwIi8+PHBhdGggaWQ9IlciIGQ9Ik0xMDEtMjUxYzgyLTcgOTMgODcgNDMgMTMyTDgyLTY0QzcxLTUzIDU5LTQyIDUzLTI3aDEyOVYwSDE4YzItOTkgMTI4LTk0IDEyOC0xODIgMC0yOC0xNi00My00NS00M3MtNDYgMTUtNDkgNDFsLTMyLTNjNi00MSAzNC02MCA4MS02NCIvPjxnIGlkPSJkIj48dXNlIHhsaW5rOmhyZWY9IiNSIiB0cmFuc2Zvcm09Im1hdHJpeCgwLjA2MTcyODM5NTA2MTcyODM5LDAsMCwwLjA2MTcyODM5NTA2MTcyODM5LDAsMCkiLz48dXNlIHhsaW5rOmhyZWY9IiNRIiB0cmFuc2Zvcm09Im1hdHJpeCgwLjA2MTcyODM5NTA2MTcyODM5LDAsMCwwLjA2MTcyODM5NTA2MTcyODM5LDEyLjM0NTY3OTAxMjM0NTY3OSwwKSIvPjx1c2UgeGxpbms6aHJlZj0iI1MiIHRyYW5zZm9ybT0ibWF0cml4KDAuMDYxNzI4Mzk1MDYxNzI4MzksMCwwLDAuMDYxNzI4Mzk1MDYxNzI4MzksMjQuNjkxMzU4MDI0NjkxMzU4LDApIi8+PHVzZSB4bGluazpocmVmPSIjUiIgdHJhbnNmb3JtPSJtYXRyaXgoMC4wNjE3MjgzOTUwNjE3MjgzOSwwLDAsMC4wNjE3MjgzOTUwNjE3MjgzOSwzMC44NjQxOTc1MzA4NjQxOTYsMCkiLz48dXNlIHhsaW5rOmhyZWY9IiNRIiB0cmFuc2Zvcm09Im1hdHJpeCgwLjA2MTcyODM5NTA2MTcyODM5LDAsMCwwLjA2MTcyODM5NTA2MTcyODM5LDQzLjIwOTg3NjU0MzIwOTg3LDApIi8+PHVzZSB4bGluazpocmVmPSIjUyIgdHJhbnNmb3JtPSJtYXRyaXgoMC4wNjE3MjgzOTUwNjE3MjgzOSwwLDAsMC4wNjE3MjgzOTUwNjE3MjgzOSw1NS41NTU1NTU1NTU1NTU1NSwwKSIvPjx1c2UgeGxpbms6aHJlZj0iI1QiIHRyYW5zZm9ybT0ibWF0cml4KDAuMDYxNzI4Mzk1MDYxNzI4MzksMCwwLDAuMDYxNzI4Mzk1MDYxNzI4MzksNjEuNzI4Mzk1MDYxNzI4MzksMCkiLz48dXNlIHhsaW5rOmhyZWY9IiNRIiB0cmFuc2Zvcm09Im1hdHJpeCgwLjA2MTcyODM5NTA2MTcyODM5LDAsMCwwLjA2MTcyODM5NTA2MTcyODM5LDc0LjA3NDA3NDA3NDA3NDA4LDApIi8+PHVzZSB4bGluazpocmVmPSIjUyIgdHJhbnNmb3JtPSJtYXRyaXgoMC4wNjE3MjgzOTUwNjE3MjgzOSwwLDAsMC4wNjE3MjgzOTUwNjE3MjgzOSw4Ni40MTk3NTMwODY0MTk3NiwwKSIvPjx1c2UgeGxpbms6aHJlZj0iI1UiIHRyYW5zZm9ybT0ibWF0cml4KDAuMDYxNzI4Mzk1MDYxNzI4MzksMCwwLDAuMDYxNzI4Mzk1MDYxNzI4MzksOTIuNTkyNTkyNTkyNTkyNiwwKSIvPjx1c2UgeGxpbms6aHJlZj0iI1YiIHRyYW5zZm9ybT0ibWF0cml4KDAuMDYxNzI4Mzk1MDYxNzI4MzksMCwwLDAuMDYxNzI4Mzk1MDYxNzI4MzksMTA0LjkzODI3MTYwNDkzODI4LDApIi8+PHVzZSB4bGluazpocmVmPSIjVyIgdHJhbnNmb3JtPSJtYXRyaXgoMC4wNjE3MjgzOTUwNjE3MjgzOSwwLDAsMC4wNjE3MjgzOTUwNjE3MjgzOSwxMTEuMTExMTExMTExMTExMTEsMCkiLz48dXNlIHhsaW5rOmhyZWY9IiNUIiB0cmFuc2Zvcm09Im1hdHJpeCgwLjA2MTcyODM5NTA2MTcyODM5LDAsMCwwLjA2MTcyODM5NTA2MTcyODM5LDEyMy40NTY3OTAxMjM0NTY4LDApIi8+PC9nPjxnIGlkPSJlIj48dXNlIHhsaW5rOmhyZWY9IiNNIiB0cmFuc2Zvcm09Im1hdHJpeCgwLjA2MTcyODM5NTA2MTcyODM5LDAsMCwwLjA2MTcyODM5NTA2MTcyODM5LDAsMCkiLz48dXNlIHhsaW5rOmhyZWY9IiNOIiB0cmFuc2Zvcm09Im1hdHJpeCgwLjA2MTcyODM5NTA2MTcyODM5LDAsMCwwLjA2MTcyODM5NTA2MTcyODM5LDExLjExMTExMTExMTExMTExLDApIi8+PHVzZSB4bGluazpocmVmPSIjTyIgdHJhbnNmb3JtPSJtYXRyaXgoMC4wNjE3MjgzOTUwNjE3MjgzOSwwLDAsMC4wNjE3MjgzOTUwNjE3MjgzOSwyOS41Njc5MDEyMzQ1Njc5LDApIi8+PHVzZSB4bGluazpocmVmPSIjUCIgdHJhbnNmb3JtPSJtYXRyaXgoMC4wNjE3MjgzOTUwNjE3MjgzOSwwLDAsMC4wNjE3MjgzOTUwNjE3MjgzOSw0MS45MTM1ODAyNDY5MTM1NzUsMCkiLz48dXNlIHhsaW5rOmhyZWY9IiNSIiB0cmFuc2Zvcm09Im1hdHJpeCgwLjA2MTcyODM5NTA2MTcyODM5LDAsMCwwLjA2MTcyODM5NTA2MTcyODM5LDQ5LjI1OTI1OTI1OTI1OTI1LDApIi8+PC9nPjxwYXRoIGlkPSJYIiBkPSJNOTktMjUxYzY0IDAgODQgNTAgODQgMTIyQzE4My0zNyAxMzAgMzMgNDctOGMtMTQtNy0yMC0yMy0yNS00MGwzMC01YzYgMzkgNjkgMzkgODQgNyA5LTE5IDE2LTQ0IDE2LTc0LTEwIDIyLTMxIDM1LTYyIDM1LTQ5IDAtNzMtMzMtNzMtODMgMC01NCAyOC04MyA4Mi04M3ptLTEgMTQxYzMxLTEgNTEtMTggNTEtNDkgMC0zNi0xNC02Ny01MS02Ny0zNCAwLTQ5IDIzLTQ5IDU4IDAgMzQgMTUgNTggNDkgNTgiLz48cGF0aCBpZD0iWSIgZD0iTTExMC0xNjBjNDggMSA3NCAzMCA3NCA3OSAwIDUzLTI4IDg1LTgwIDg1LTY1IDAtODMtNTUtODYtMTIyLTUtOTAgNTAtMTYyIDEzMy0xMjIgMTQgNyAyMiAyMSAyNyAzOWwtMzEgNmMtNS00MC02Ny0zOC04Mi02LTkgMTktMTUgNDQtMTUgNzQgMTEtMjAgMzAtMzQgNjAtMzN6bS03IDEzOGMzNCAwIDQ5LTIzIDQ5LTU4cy0xNi01Ni01MC01NmMtMjkgMC01MCAxNi00OSA0OSAxIDM2IDE1IDY1IDUwIDY1Ii8+PHBhdGggaWQ9IloiIGQ9Ik0xMzQtMTMxYzI4IDkgNTIgMjQgNTEgNjItMSA1MC0zNCA3My04NSA3M1MxNy0xOSAxNi02OWMwLTM2IDIxLTU0IDQ5LTYxLTc1LTI1LTQ1LTEyNiAzNC0xMjEgNDYgMyA3OCAxOCA3OSA2MyAwIDMzLTE3IDUxLTQ0IDU3em0tMzQtMTFjMzEgMSA0Ni0xNSA0Ni00NCAwLTI4LTE3LTQzLTQ3LTQyLTI5IDAtNDYgMTMtNDUgNDIgMSAyOCAxNiA0NCA0NiA0NHptMSAxMjJjMzUgMCA1MS0xOCA1MS01MiAwLTMwLTE4LTQ2LTUzLTQ2LTMzIDAtNTEgMTctNTEgNDcgMCAzNCAxOSA1MSA1MyA1MSIvPjxnIGlkPSJmIj48dXNlIHhsaW5rOmhyZWY9IiNSIiB0cmFuc2Zvcm09Im1hdHJpeCgwLjA2MTcyODM5NTA2MTcyODM5LDAsMCwwLjA2MTcyODM5NTA2MTcyODM5LDAsMCkiLz48dXNlIHhsaW5rOmhyZWY9IiNYIiB0cmFuc2Zvcm09Im1hdHJpeCgwLjA2MTcyODM5NTA2MTcyODM5LDAsMCwwLjA2MTcyODM5NTA2MTcyODM5LDEyLjM0NTY3OTAxMjM0NTY3OSwwKSIvPjx1c2UgeGxpbms6aHJlZj0iI1ciIHRyYW5zZm9ybT0ibWF0cml4KDAuMDYxNzI4Mzk1MDYxNzI4MzksMCwwLDAuMDYxNzI4Mzk1MDYxNzI4MzksMjQuNjkxMzU4MDI0NjkxMzU4LDApIi8+PHVzZSB4bGluazpocmVmPSIjUyIgdHJhbnNmb3JtPSJtYXRyaXgoMC4wNjE3MjgzOTUwNjE3MjgzOSwwLDAsMC4wNjE3MjgzOTUwNjE3MjgzOSwzNy4wMzcwMzcwMzcwMzcwNCwwKSIvPjx1c2UgeGxpbms6aHJlZj0iI1IiIHRyYW5zZm9ybT0ibWF0cml4KDAuMDYxNzI4Mzk1MDYxNzI4MzksMCwwLDAuMDYxNzI4Mzk1MDYxNzI4MzksNDMuMjA5ODc2NTQzMjA5ODgsMCkiLz48dXNlIHhsaW5rOmhyZWY9IiNZIiB0cmFuc2Zvcm09Im1hdHJpeCgwLjA2MTcyODM5NTA2MTcyODM5LDAsMCwwLjA2MTcyODM5NTA2MTcyODM5LDU1LjU1NTU1NTU1NTU1NTU2LDApIi8+PHVzZSB4bGluazpocmVmPSIjWiIgdHJhbnNmb3JtPSJtYXRyaXgoMC4wNjE3MjgzOTUwNjE3MjgzOSwwLDAsMC4wNjE3MjgzOTUwNjE3MjgzOSw2Ny45MDEyMzQ1Njc5MDEyNCwwKSIvPjx1c2UgeGxpbms6aHJlZj0iI1MiIHRyYW5zZm9ybT0ibWF0cml4KDAuMDYxNzI4Mzk1MDYxNzI4MzksMCwwLDAuMDYxNzI4Mzk1MDYxNzI4MzksODAuMjQ2OTEzNTgwMjQ2OTMsMCkiLz48dXNlIHhsaW5rOmhyZWY9IiNSIiB0cmFuc2Zvcm09Im1hdHJpeCgwLjA2MTcyODM5NTA2MTcyODM5LDAsMCwwLjA2MTcyODM5NTA2MTcyODM5LDg2LjQxOTc1MzA4NjQxOTc2LDApIi8+PHVzZSB4bGluazpocmVmPSIjUyIgdHJhbnNmb3JtPSJtYXRyaXgoMC4wNjE3MjgzOTUwNjE3MjgzOSwwLDAsMC4wNjE3MjgzOTUwNjE3MjgzOSw5OC43NjU0MzIwOTg3NjU0NCwwKSIvPjx1c2UgeGxpbms6aHJlZj0iI1IiIHRyYW5zZm9ybT0ibWF0cml4KDAuMDYxNzI4Mzk1MDYxNzI4MzksMCwwLDAuMDYxNzI4Mzk1MDYxNzI4MzksMTA0LjkzODI3MTYwNDkzODI4LDApIi8+PHVzZSB4bGluazpocmVmPSIjViIgdHJhbnNmb3JtPSJtYXRyaXgoMC4wNjE3MjgzOTUwNjE3MjgzOSwwLDAsMC4wNjE3MjgzOTUwNjE3MjgzOSwxMTcuMjgzOTUwNjE3MjgzOTYsMCkiLz48dXNlIHhsaW5rOmhyZWY9IiNXIiB0cmFuc2Zvcm09Im1hdHJpeCgwLjA2MTcyODM5NTA2MTcyODM5LDAsMCwwLjA2MTcyODM5NTA2MTcyODM5LDEyMy40NTY3OTAxMjM0NTY4LDApIi8+PHVzZSB4bGluazpocmVmPSIjVCIgdHJhbnNmb3JtPSJtYXRyaXgoMC4wNjE3MjgzOTUwNjE3MjgzOSwwLDAsMC4wNjE3MjgzOTUwNjE3MjgzOSwxMzUuODAyNDY5MTM1ODAyNDgsMCkiLz48L2c+PHBhdGggaWQ9ImFhIiBkPSJNMTAwLTE5NGM2MyAwIDg2IDQyIDg0IDEwNkg0OWMwIDQwIDE0IDY3IDUzIDY4IDI2IDEgNDMtMTIgNDktMjlsMjggOGMtMTEgMjgtMzcgNDUtNzcgNDVDNDQgNCAxNC0zMyAxNS05NmMxLTYxIDI2LTk4IDg1LTk4em01MiA4MWM2LTYwLTc2LTc3LTk3LTI4LTMgNy02IDE3LTYgMjhoMTAzIi8+PHBhdGggaWQ9ImFiIiBkPSJNMTE3LTE5NGM4OS00IDUzIDExNiA2MCAxOTRoLTMydi0xMjFjMC0zMS04LTQ5LTM5LTQ4QzM0LTE2NyA2Mi02NyA1NyAwSDI1bC0xLTE5MGgzMGMxIDEwLTEgMjQgMiAzMiAxMS0yMiAyOS0zNSA2MS0zNiIvPjxwYXRoIGlkPSJhYyIgZD0iTTEwMC0xOTRjNjItMSA4NSAzNyA4NSA5OSAxIDYzLTI3IDk5LTg2IDk5UzE2LTM1IDE1LTk1YzAtNjYgMjgtOTkgODUtOTl6TTk5LTIwYzQ0IDEgNTMtMzEgNTMtNzUgMC00My04LTc1LTUxLTc1cy01MyAzMi01MyA3NSAxMCA3NCA1MSA3NSIvPjxnIGlkPSJnIj48dXNlIHhsaW5rOmhyZWY9IiNhYSIgdHJhbnNmb3JtPSJtYXRyaXgoMC4wNjE3MjgzOTUwNjE3MjgzOSwwLDAsMC4wNjE3MjgzOTUwNjE3MjgzOSwwLDApIi8+PHVzZSB4bGluazpocmVmPSIjYWIiIHRyYW5zZm9ybT0ibWF0cml4KDAuMDYxNzI4Mzk1MDYxNzI4MzksMCwwLDAuMDYxNzI4Mzk1MDYxNzI4MzksMTIuMzQ1Njc5MDEyMzQ1Njc5LDApIi8+PHVzZSB4bGluazpocmVmPSIjYWMiIHRyYW5zZm9ybT0ibWF0cml4KDAuMDYxNzI4Mzk1MDYxNzI4MzksMCwwLDAuMDYxNzI4Mzk1MDYxNzI4MzksMjQuNjkxMzU4MDI0NjkxMzU4LDApIi8+PHVzZSB4bGluazpocmVmPSIjUiIgdHJhbnNmb3JtPSJtYXRyaXgoMC4wNjE3MjgzOTUwNjE3MjgzOSwwLDAsMC4wNjE3MjgzOTUwNjE3MjgzOSwzNy4wMzcwMzcwMzcwMzcwNCwwKSIvPjwvZz48cGF0aCBpZD0iYWQiIGQ9Ik0xOTAgMEw1OC0yMTEgNTkgMEgzMHYtMjQ4aDM5TDIwMi0zNWwtMi0yMTNoMzFWMGgtNDEiLz48cGF0aCBpZD0iYWUiIGQ9Ik04NS0xOTRjMzEgMCA0OCAxMyA2MCAzM2wtMS0xMDBoMzJsMSAyNjFoLTMwYy0yLTEwIDAtMjMtMy0zMUMxMzQtOCAxMTYgNCA4NSA0IDMyIDQgMTYtMzUgMTUtOTRjMC02NiAyMy0xMDAgNzAtMTAwem05IDI0Yy00MCAwLTQ2IDM0LTQ2IDc1IDAgNDAgNiA3NCA0NSA3NCA0MiAwIDUxLTMyIDUxLTc2IDAtNDItOS03NC01MC03MyIvPjxnIGlkPSJoIj48dXNlIHhsaW5rOmhyZWY9IiNhZCIgdHJhbnNmb3JtPSJtYXRyaXgoMC4wNjE3MjgzOTUwNjE3MjgzOSwwLDAsMC4wNjE3MjgzOTUwNjE3MjgzOSwwLDApIi8+PHVzZSB4bGluazpocmVmPSIjYWMiIHRyYW5zZm9ybT0ibWF0cml4KDAuMDYxNzI4Mzk1MDYxNzI4MzksMCwwLDAuMDYxNzI4Mzk1MDYxNzI4MzksMTUuOTg3NjU0MzIwOTg3NjUzLDApIi8+PHVzZSB4bGluazpocmVmPSIjYWUiIHRyYW5zZm9ybT0ibWF0cml4KDAuMDYxNzI4Mzk1MDYxNzI4MzksMCwwLDAuMDYxNzI4Mzk1MDYxNzI4MzksMjguMzMzMzMzMzMzMzMzMzMyLDApIi8+PHVzZSB4bGluazpocmVmPSIjYWEiIHRyYW5zZm9ybT0ibWF0cml4KDAuMDYxNzI4Mzk1MDYxNzI4MzksMCwwLDAuMDYxNzI4Mzk1MDYxNzI4MzksNDAuNjc5MDEyMzQ1Njc5MDEsMCkiLz48L2c+PHVzZSBpZD0iaSIgeGxpbms6aHJlZj0iI1IiIHRyYW5zZm9ybT0ibWF0cml4KDAuMDYxNzI4Mzk1MDYxNzI4MzksMCwwLDAuMDYxNzI4Mzk1MDYxNzI4MzksMCwwKSIvPjxnIGlkPSJqIj48dXNlIHhsaW5rOmhyZWY9IiNhZCIgdHJhbnNmb3JtPSJtYXRyaXgoMC4wNjE3MjgzOTUwNjE3MjgzOSwwLDAsMC4wNjE3MjgzOTUwNjE3MjgzOSwwLDApIi8+PHVzZSB4bGluazpocmVmPSIjYWMiIHRyYW5zZm9ybT0ibWF0cml4KDAuMDYxNzI4Mzk1MDYxNzI4MzksMCwwLDAuMDYxNzI4Mzk1MDYxNzI4MzksMTUuOTg3NjU0MzIwOTg3NjUzLDApIi8+PHVzZSB4bGluazpocmVmPSIjYWUiIHRyYW5zZm9ybT0ibWF0cml4KDAuMDYxNzI4Mzk1MDYxNzI4MzksMCwwLDAuMDYxNzI4Mzk1MDYxNzI4MzksMjguMzMzMzMzMzMzMzMzMzMyLDApIi8+PHVzZSB4bGluazpocmVmPSIjYWEiIHRyYW5zZm9ybT0ibWF0cml4KDAuMDYxNzI4Mzk1MDYxNzI4MzksMCwwLDAuMDYxNzI4Mzk1MDYxNzI4MzksNDAuNjc5MDEyMzQ1Njc5MDEsMCkiLz48L2c+PHVzZSBpZD0iayIgeGxpbms6aHJlZj0iI1ciIHRyYW5zZm9ybT0ibWF0cml4KDAuMDYxNzI4Mzk1MDYxNzI4MzksMCwwLDAuMDYxNzI4Mzk1MDYxNzI4MzksMCwwKSIvPjx1c2UgaWQ9ImwiIHhsaW5rOmhyZWY9IiNVIiB0cmFuc2Zvcm09Im1hdHJpeCgwLjA2MTcyODM5NTA2MTcyODM5LDAsMCwwLjA2MTcyODM5NTA2MTcyODM5LDAsMCkiLz48cGF0aCBpZD0iYWYiIGQ9Ik02Ny0xMjVjMCA1MyAyMSA4NyA3MyA4OCAzNyAxIDU0LTIyIDY1LTQ3bDQ1IDE3QzIzMy0yNSAxOTkgNCAxNDAgNCA1OCA0IDIwLTQyIDE1LTEyNSA4LTIzNSAxMjQtMjgxIDIxMS0yMzJjMTggMTAgMjkgMjkgMzYgNTBsLTQ2IDEyYy04LTI1LTMwLTQxLTYyLTQxLTUyIDAtNzEgMzQtNzIgODYiIGZpbGw9IiMzMzMiLz48cGF0aCBpZD0iYWciIGQ9Ik0yNCAwdi0yNDhoMTk1djQwSDc2djYzaDEzMnY0MEg3NnY2NWgxNTBWMEgyNCIgZmlsbD0iIzMzMyIvPjxwYXRoIGlkPSJhaCIgZD0iTTI0LTI0OGM5MyAxIDIwNi0xNiAyMDQgNzktMSA3NS02OSA4OC0xNTIgODJWMEgyNHYtMjQ4em01MiAxMjFjNDcgMCAxMDAgNyAxMDAtNDEgMC00Ny01NC0zOS0xMDAtMzl2ODAiIGZpbGw9IiMzMzMiLz48cGF0aCBpZD0iYWkiIGQ9Ik0xODYgMHYtMTA2SDc2VjBIMjR2LTI0OGg1MnY5OWgxMTB2LTk5aDUwVjBoLTUwIiBmaWxsPSIjMzMzIi8+PGcgaWQ9Im0iPjx1c2UgeGxpbms6aHJlZj0iI2FmIiB0cmFuc2Zvcm09Im1hdHJpeCgwLjA0OTM4MjcxNjA0OTM4MjcyLDAsMCwwLjA0OTM4MjcxNjA0OTM4MjcyLDAsMCkiLz48dXNlIHhsaW5rOmhyZWY9IiNhZyIgdHJhbnNmb3JtPSJtYXRyaXgoMC4wNDkzODI3MTYwNDkzODI3MiwwLDAsMC4wNDkzODI3MTYwNDkzODI3MiwxMi43OTAxMjM0NTY3OTAxMjUsMCkiLz48dXNlIHhsaW5rOmhyZWY9IiNhaCIgdHJhbnNmb3JtPSJtYXRyaXgoMC4wNDkzODI3MTYwNDkzODI3MiwwLDAsMC4wNDkzODI3MTYwNDkzODI3MiwyNC42NDE5NzUzMDg2NDE5NzgsMCkiLz48dXNlIHhsaW5rOmhyZWY9IiNhaSIgdHJhbnNmb3JtPSJtYXRyaXgoMC4wNDkzODI3MTYwNDkzODI3MiwwLDAsMC4wNDkzODI3MTYwNDkzODI3MiwzNi40OTM4MjcxNjA0OTM4MywwKSIvPjwvZz48cGF0aCBpZD0iYWoiIGQ9Ik0xOTkgMGwtMjItNjNIODNMNjEgMEg5bDkwLTI0OGg2MUwyNTAgMGgtNTF6bS0zMy0xMDJsLTM2LTEwOGMtMTAgMzgtMjQgNzItMzYgMTA4aDcyIiBmaWxsPSIjMzMzIi8+PHBhdGggaWQ9ImFrIiBkPSJNMjUgMHYtMjYxaDUwVjBIMjUiIGZpbGw9IiMzMzMiLz48cGF0aCBpZD0iYWwiIGQ9Ik04Ni0yMDBsNDItMTggMTIgMzUtNDQgMTEgMzIgMzctMzIgMjEtMjYtNDQtMjYgNDQtMzItMjEgMzMtMzctNDQtMTEgMTItMzUgNDIgMTgtMy00OGgzOCIgZmlsbD0iIzMzMyIvPjxnIGlkPSJuIj48dXNlIHhsaW5rOmhyZWY9IiNhaiIgdHJhbnNmb3JtPSJtYXRyaXgoMC4wNDkzODI3MTYwNDkzODI3MiwwLDAsMC4wNDkzODI3MTYwNDkzODI3MiwwLDApIi8+PHVzZSB4bGluazpocmVmPSIjYWsiIHRyYW5zZm9ybT0ibWF0cml4KDAuMDQ5MzgyNzE2MDQ5MzgyNzIsMCwwLDAuMDQ5MzgyNzE2MDQ5MzgyNzIsMTIuNzkwMTIzNDU2NzkwMTI1LDApIi8+PHVzZSB4bGluazpocmVmPSIjYWsiIHRyYW5zZm9ybT0ibWF0cml4KDAuMDQ5MzgyNzE2MDQ5MzgyNzIsMCwwLDAuMDQ5MzgyNzE2MDQ5MzgyNzIsMTcuNzI4Mzk1MDYxNzI4NCwwKSIvPjx1c2UgeGxpbms6aHJlZj0iI2FsIiB0cmFuc2Zvcm09Im1hdHJpeCgwLjA0OTM4MjcxNjA0OTM4MjcyLDAsMCwwLjA0OTM4MjcxNjA0OTM4MjcyLDIyLjY2NjY2NjY2NjY2NjY3LDApIi8+PC9nPjxwYXRoIGlkPSJhbSIgZD0iTTIxMi0xNzljLTEwLTI4LTM1LTQ1LTczLTQ1LTU5IDAtODcgNDAtODcgOTkgMCA2MCAyOSAxMDEgODkgMTAxIDQzIDAgNjItMjQgNzgtNTJsMjcgMTRDMjI4LTI0IDE5NSA0IDEzOSA0IDU5IDQgMjItNDYgMTgtMTI1Yy02LTEwNCA5OS0xNTMgMTg3LTExMSAxOSA5IDMxIDI2IDM5IDQ2Ii8+PHBhdGggaWQ9ImFuIiBkPSJNMTE1LTE5NGM1NSAxIDcwIDQxIDcwIDk4UzE2OSAyIDExNSA0Qzg0IDQgNjYtOSA1NS0zMGwxIDEwNUgyNGwtMS0yNjVoMzFsMiAzMGMxMC0yMSAyOC0zNCA1OS0zNHptLTggMTc0YzQwIDAgNDUtMzQgNDUtNzVzLTYtNzMtNDUtNzRjLTQyIDAtNTEgMzItNTEgNzYgMCA0MyAxMCA3MyA1MSA3MyIvPjxwYXRoIGlkPSJhbyIgZD0iTTEwNi0xNjlDMzQtMTY5IDYyLTY3IDU3IDBIMjV2LTI2MWgzMmwtMSAxMDNjMTItMjEgMjgtMzYgNjEtMzYgODkgMCA1MyAxMTYgNjAgMTk0aC0zMnYtMTIxYzItMzItOC00OS0zOS00OCIvPjxwYXRoIGlkPSJhcCIgZD0iTTMzLTE1NHYtMzZoMzR2MzZIMzN6TTMzIDB2LTM2aDM0VjBIMzMiLz48ZyBpZD0ibyI+PHVzZSB4bGluazpocmVmPSIjYW0iIHRyYW5zZm9ybT0ibWF0cml4KDAuMDYxNzI4Mzk1MDYxNzI4MzksMCwwLDAuMDYxNzI4Mzk1MDYxNzI4MzksMCwwKSIvPjx1c2UgeGxpbms6aHJlZj0iI2FhIiB0cmFuc2Zvcm09Im1hdHJpeCgwLjA2MTcyODM5NTA2MTcyODM5LDAsMCwwLjA2MTcyODM5NTA2MTcyODM5LDE1Ljk4NzY1NDMyMDk4NzY1MywwKSIvPjx1c2UgeGxpbms6aHJlZj0iI2FuIiB0cmFuc2Zvcm09Im1hdHJpeCgwLjA2MTcyODM5NTA2MTcyODM5LDAsMCwwLjA2MTcyODM5NTA2MTcyODM5LDI4LjMzMzMzMzMzMzMzMzMzMiwwKSIvPjx1c2UgeGxpbms6aHJlZj0iI2FvIiB0cmFuc2Zvcm09Im1hdHJpeCgwLjA2MTcyODM5NTA2MTcyODM5LDAsMCwwLjA2MTcyODM5NTA2MTcyODM5LDQwLjY3OTAxMjM0NTY3OTAxLDApIi8+PHVzZSB4bGluazpocmVmPSIjYXAiIHRyYW5zZm9ybT0ibWF0cml4KDAuMDYxNzI4Mzk1MDYxNzI4MzksMCwwLDAuMDYxNzI4Mzk1MDYxNzI4MzksNTMuMDI0NjkxMzU4MDI0NjksMCkiLz48L2c+PGcgaWQ9InAiPjx1c2UgeGxpbms6aHJlZj0iI1IiIHRyYW5zZm9ybT0ibWF0cml4KDAuMDYxNzI4Mzk1MDYxNzI4MzksMCwwLDAuMDYxNzI4Mzk1MDYxNzI4MzksMCwwKSIvPjx1c2UgeGxpbms6aHJlZj0iI1giIHRyYW5zZm9ybT0ibWF0cml4KDAuMDYxNzI4Mzk1MDYxNzI4MzksMCwwLDAuMDYxNzI4Mzk1MDYxNzI4MzksMTIuMzQ1Njc5MDEyMzQ1Njc5LDApIi8+PHVzZSB4bGluazpocmVmPSIjVyIgdHJhbnNmb3JtPSJtYXRyaXgoMC4wNjE3MjgzOTUwNjE3MjgzOSwwLDAsMC4wNjE3MjgzOTUwNjE3MjgzOSwyNC42OTEzNTgwMjQ2OTEzNTgsMCkiLz48dXNlIHhsaW5rOmhyZWY9IiNTIiB0cmFuc2Zvcm09Im1hdHJpeCgwLjA2MTcyODM5NTA2MTcyODM5LDAsMCwwLjA2MTcyODM5NTA2MTcyODM5LDM3LjAzNzAzNzAzNzAzNzA0LDApIi8+PHVzZSB4bGluazpocmVmPSIjUiIgdHJhbnNmb3JtPSJtYXRyaXgoMC4wNjE3MjgzOTUwNjE3MjgzOSwwLDAsMC4wNjE3MjgzOTUwNjE3MjgzOSw0My4yMDk4NzY1NDMyMDk4OCwwKSIvPjx1c2UgeGxpbms6aHJlZj0iI1kiIHRyYW5zZm9ybT0ibWF0cml4KDAuMDYxNzI4Mzk1MDYxNzI4MzksMCwwLDAuMDYxNzI4Mzk1MDYxNzI4MzksNTUuNTU1NTU1NTU1NTU1NTYsMCkiLz48dXNlIHhsaW5rOmhyZWY9IiNaIiB0cmFuc2Zvcm09Im1hdHJpeCgwLjA2MTcyODM5NTA2MTcyODM5LDAsMCwwLjA2MTcyODM5NTA2MTcyODM5LDY3LjkwMTIzNDU2NzkwMTI0LDApIi8+PHVzZSB4bGluazpocmVmPSIjUyIgdHJhbnNmb3JtPSJtYXRyaXgoMC4wNjE3MjgzOTUwNjE3MjgzOSwwLDAsMC4wNjE3MjgzOTUwNjE3MjgzOSw4MC4yNDY5MTM1ODAyNDY5MywwKSIvPjx1c2UgeGxpbms6aHJlZj0iI1IiIHRyYW5zZm9ybT0ibWF0cml4KDAuMDYxNzI4Mzk1MDYxNzI4MzksMCwwLDAuMDYxNzI4Mzk1MDYxNzI4MzksODYuNDE5NzUzMDg2NDE5NzYsMCkiLz48dXNlIHhsaW5rOmhyZWY9IiNTIiB0cmFuc2Zvcm09Im1hdHJpeCgwLjA2MTcyODM5NTA2MTcyODM5LDAsMCwwLjA2MTcyODM5NTA2MTcyODM5LDk4Ljc2NTQzMjA5ODc2NTQ0LDApIi8+PHVzZSB4bGluazpocmVmPSIjVyIgdHJhbnNmb3JtPSJtYXRyaXgoMC4wNjE3MjgzOTUwNjE3MjgzOSwwLDAsMC4wNjE3MjgzOTUwNjE3MjgzOSwxMDQuOTM4MjcxNjA0OTM4MjgsMCkiLz48L2c+PHBhdGggaWQ9ImFxIiBkPSJNMzAtMjQ4Yzg3IDEgMTkxLTE1IDE5MSA3NSAwIDc4LTc3IDgwLTE1OCA3NlYwSDMwdi0yNDh6bTMzIDEyNWM1NyAwIDEyNCAxMSAxMjQtNTAgMC01OS02OC00Ny0xMjQtNDh2OTgiLz48cGF0aCBpZD0iYXIiIGQ9Ik0xNDEgMEw5MC03OCAzOCAwSDRsNjgtOTgtNjUtOTJoMzVsNDggNzQgNDctNzRoMzVsLTY0IDkyIDY4IDk4aC0zNSIvPjxnIGlkPSJxIj48dXNlIHhsaW5rOmhyZWY9IiNhcSIgdHJhbnNmb3JtPSJtYXRyaXgoMC4wNjE3MjgzOTUwNjE3MjgzOSwwLDAsMC4wNjE3MjgzOTUwNjE3MjgzOSwwLDApIi8+PHVzZSB4bGluazpocmVmPSIjUCIgdHJhbnNmb3JtPSJtYXRyaXgoMC4wNjE3MjgzOTUwNjE3MjgzOSwwLDAsMC4wNjE3MjgzOTUwNjE3MjgzOSwxNC44MTQ4MTQ4MTQ4MTQ4MTMsMCkiLz48dXNlIHhsaW5rOmhyZWY9IiNhYyIgdHJhbnNmb3JtPSJtYXRyaXgoMC4wNjE3MjgzOTUwNjE3MjgzOSwwLDAsMC4wNjE3MjgzOTUwNjE3MjgzOSwyMi4xNjA0OTM4MjcxNjA0OTQsMCkiLz48dXNlIHhsaW5rOmhyZWY9IiNhciIgdHJhbnNmb3JtPSJtYXRyaXgoMC4wNjE3MjgzOTUwNjE3MjgzOSwwLDAsMC4wNjE3MjgzOTUwNjE3MjgzOSwzNC41MDYxNzI4Mzk1MDYxNywwKSIvPjx1c2UgeGxpbms6aHJlZj0iI04iIHRyYW5zZm9ybT0ibWF0cml4KDAuMDYxNzI4Mzk1MDYxNzI4MzksMCwwLDAuMDYxNzI4Mzk1MDYxNzI4MzksNDUuNjE3MjgzOTUwNjE3MjgsMCkiLz48dXNlIHhsaW5rOmhyZWY9IiNhYyIgdHJhbnNmb3JtPSJtYXRyaXgoMC4wNjE3MjgzOTUwNjE3MjgzOSwwLDAsMC4wNjE3MjgzOTUwNjE3MjgzOSw2NC4wNzQwNzQwNzQwNzQwNiwwKSIvPjx1c2UgeGxpbms6aHJlZj0iI2FyIiB0cmFuc2Zvcm09Im1hdHJpeCgwLjA2MTcyODM5NTA2MTcyODM5LDAsMCwwLjA2MTcyODM5NTA2MTcyODM5LDc2LjQxOTc1MzA4NjQxOTc1LDApIi8+PHVzZSB4bGluazpocmVmPSIjYXAiIHRyYW5zZm9ybT0ibWF0cml4KDAuMDYxNzI4Mzk1MDYxNzI4MzksMCwwLDAuMDYxNzI4Mzk1MDYxNzI4MzksODcuNTMwODY0MTk3NTMwODYsMCkiLz48L2c+PHBhdGggaWQ9ImFzIiBkPSJNMTU1LTU2VjBoLTMwdi01Nkg4di0yNWwxMTQtMTY3aDMzdjE2N2gzNXYyNWgtMzV6bS0zMC0xNTZjLTI3IDQ2LTU4IDkwLTg4IDEzMWg4OHYtMTMxIi8+PGcgaWQ9InIiPjx1c2UgeGxpbms6aHJlZj0iI1IiIHRyYW5zZm9ybT0ibWF0cml4KDAuMDYxNzI4Mzk1MDYxNzI4MzksMCwwLDAuMDYxNzI4Mzk1MDYxNzI4MzksMCwwKSIvPjx1c2UgeGxpbms6aHJlZj0iI1EiIHRyYW5zZm9ybT0ibWF0cml4KDAuMDYxNzI4Mzk1MDYxNzI4MzksMCwwLDAuMDYxNzI4Mzk1MDYxNzI4MzksMTIuMzQ1Njc5MDEyMzQ1Njc5LDApIi8+PHVzZSB4bGluazpocmVmPSIjUyIgdHJhbnNmb3JtPSJtYXRyaXgoMC4wNjE3MjgzOTUwNjE3MjgzOSwwLDAsMC4wNjE3MjgzOTUwNjE3MjgzOSwyNC42OTEzNTgwMjQ2OTEzNTgsMCkiLz48dXNlIHhsaW5rOmhyZWY9IiNSIiB0cmFuc2Zvcm09Im1hdHJpeCgwLjA2MTcyODM5NTA2MTcyODM5LDAsMCwwLjA2MTcyODM5NTA2MTcyODM5LDMwLjg2NDE5NzUzMDg2NDE5NiwwKSIvPjx1c2UgeGxpbms6aHJlZj0iI1EiIHRyYW5zZm9ybT0ibWF0cml4KDAuMDYxNzI4Mzk1MDYxNzI4MzksMCwwLDAuMDYxNzI4Mzk1MDYxNzI4MzksNDMuMjA5ODc2NTQzMjA5ODcsMCkiLz48dXNlIHhsaW5rOmhyZWY9IiNTIiB0cmFuc2Zvcm09Im1hdHJpeCgwLjA2MTcyODM5NTA2MTcyODM5LDAsMCwwLjA2MTcyODM5NTA2MTcyODM5LDU1LjU1NTU1NTU1NTU1NTU1LDApIi8+PHVzZSB4bGluazpocmVmPSIjVCIgdHJhbnNmb3JtPSJtYXRyaXgoMC4wNjE3MjgzOTUwNjE3MjgzOSwwLDAsMC4wNjE3MjgzOTUwNjE3MjgzOSw2MS43MjgzOTUwNjE3MjgzOSwwKSIvPjx1c2UgeGxpbms6aHJlZj0iI1EiIHRyYW5zZm9ybT0ibWF0cml4KDAuMDYxNzI4Mzk1MDYxNzI4MzksMCwwLDAuMDYxNzI4Mzk1MDYxNzI4MzksNzQuMDc0MDc0MDc0MDc0MDgsMCkiLz48dXNlIHhsaW5rOmhyZWY9IiNTIiB0cmFuc2Zvcm09Im1hdHJpeCgwLjA2MTcyODM5NTA2MTcyODM5LDAsMCwwLjA2MTcyODM5NTA2MTcyODM5LDg2LjQxOTc1MzA4NjQxOTc2LDApIi8+PHVzZSB4bGluazpocmVmPSIjYXMiIHRyYW5zZm9ybT0ibWF0cml4KDAuMDYxNzI4Mzk1MDYxNzI4MzksMCwwLDAuMDYxNzI4Mzk1MDYxNzI4MzksOTIuNTkyNTkyNTkyNTkyNiwwKSIvPjwvZz48ZyBpZD0icyI+PHVzZSB4bGluazpocmVmPSIjUiIgdHJhbnNmb3JtPSJtYXRyaXgoMC4wNjE3MjgzOTUwNjE3MjgzOSwwLDAsMC4wNjE3MjgzOTUwNjE3MjgzOSwwLDApIi8+PHVzZSB4bGluazpocmVmPSIjWCIgdHJhbnNmb3JtPSJtYXRyaXgoMC4wNjE3MjgzOTUwNjE3MjgzOSwwLDAsMC4wNjE3MjgzOTUwNjE3MjgzOSwxMi4zNDU2NzkwMTIzNDU2NzksMCkiLz48dXNlIHhsaW5rOmhyZWY9IiNXIiB0cmFuc2Zvcm09Im1hdHJpeCgwLjA2MTcyODM5NTA2MTcyODM5LDAsMCwwLjA2MTcyODM5NTA2MTcyODM5LDI0LjY5MTM1ODAyNDY5MTM1OCwwKSIvPjx1c2UgeGxpbms6aHJlZj0iI1MiIHRyYW5zZm9ybT0ibWF0cml4KDAuMDYxNzI4Mzk1MDYxNzI4MzksMCwwLDAuMDYxNzI4Mzk1MDYxNzI4MzksMzcuMDM3MDM3MDM3MDM3MDQsMCkiLz48dXNlIHhsaW5rOmhyZWY9IiNSIiB0cmFuc2Zvcm09Im1hdHJpeCgwLjA2MTcyODM5NTA2MTcyODM5LDAsMCwwLjA2MTcyODM5NTA2MTcyODM5LDQzLjIwOTg3NjU0MzIwOTg4LDApIi8+PHVzZSB4bGluazpocmVmPSIjWSIgdHJhbnNmb3JtPSJtYXRyaXgoMC4wNjE3MjgzOTUwNjE3MjgzOSwwLDAsMC4wNjE3MjgzOTUwNjE3MjgzOSw1NS41NTU1NTU1NTU1NTU1NiwwKSIvPjx1c2UgeGxpbms6aHJlZj0iI1oiIHRyYW5zZm9ybT0ibWF0cml4KDAuMDYxNzI4Mzk1MDYxNzI4MzksMCwwLDAuMDYxNzI4Mzk1MDYxNzI4MzksNjcuOTAxMjM0NTY3OTAxMjQsMCkiLz48dXNlIHhsaW5rOmhyZWY9IiNTIiB0cmFuc2Zvcm09Im1hdHJpeCgwLjA2MTcyODM5NTA2MTcyODM5LDAsMCwwLjA2MTcyODM5NTA2MTcyODM5LDgwLjI0NjkxMzU4MDI0NjkzLDApIi8+PHVzZSB4bGluazpocmVmPSIjUiIgdHJhbnNmb3JtPSJtYXRyaXgoMC4wNjE3MjgzOTUwNjE3MjgzOSwwLDAsMC4wNjE3MjgzOTUwNjE3MjgzOSw4Ni40MTk3NTMwODY0MTk3NiwwKSIvPjx1c2UgeGxpbms6aHJlZj0iI1MiIHRyYW5zZm9ybT0ibWF0cml4KDAuMDYxNzI4Mzk1MDYxNzI4MzksMCwwLDAuMDYxNzI4Mzk1MDYxNzI4MzksOTguNzY1NDMyMDk4NzY1NDQsMCkiLz48dXNlIHhsaW5rOmhyZWY9IiNVIiB0cmFuc2Zvcm09Im1hdHJpeCgwLjA2MTcyODM5NTA2MTcyODM5LDAsMCwwLjA2MTcyODM5NTA2MTcyODM5LDEwNC45MzgyNzE2MDQ5MzgyOCwwKSIvPjwvZz48cGF0aCBpZD0iYXQiIGQ9Ik01NC0xNDJjNDgtMzUgMTM3LTggMTMxIDYxQzE5NiAxOCAzMSAzMyAxNC01NWwzMi00YzcgMjMgMjIgMzcgNTIgMzcgMzUtMSA1MS0yMiA1NC01OCA0LTU1LTczLTY1LTk5LTM0SDIybDgtMTM0aDE0MXYyN0g1OSIvPjxnIGlkPSJ0Ij48dXNlIHhsaW5rOmhyZWY9IiNSIiB0cmFuc2Zvcm09Im1hdHJpeCgwLjA2MTcyODM5NTA2MTcyODM5LDAsMCwwLjA2MTcyODM5NTA2MTcyODM5LDAsMCkiLz48dXNlIHhsaW5rOmhyZWY9IiNRIiB0cmFuc2Zvcm09Im1hdHJpeCgwLjA2MTcyODM5NTA2MTcyODM5LDAsMCwwLjA2MTcyODM5NTA2MTcyODM5LDEyLjM0NTY3OTAxMjM0NTY3OSwwKSIvPjx1c2UgeGxpbms6aHJlZj0iI1MiIHRyYW5zZm9ybT0ibWF0cml4KDAuMDYxNzI4Mzk1MDYxNzI4MzksMCwwLDAuMDYxNzI4Mzk1MDYxNzI4MzksMjQuNjkxMzU4MDI0NjkxMzU4LDApIi8+PHVzZSB4bGluazpocmVmPSIjUiIgdHJhbnNmb3JtPSJtYXRyaXgoMC4wNjE3MjgzOTUwNjE3MjgzOSwwLDAsMC4wNjE3MjgzOTUwNjE3MjgzOSwzMC44NjQxOTc1MzA4NjQxOTYsMCkiLz48dXNlIHhsaW5rOmhyZWY9IiNRIiB0cmFuc2Zvcm09Im1hdHJpeCgwLjA2MTcyODM5NTA2MTcyODM5LDAsMCwwLjA2MTcyODM5NTA2MTcyODM5LDQzLjIwOTg3NjU0MzIwOTg3LDApIi8+PHVzZSB4bGluazpocmVmPSIjUyIgdHJhbnNmb3JtPSJtYXRyaXgoMC4wNjE3MjgzOTUwNjE3MjgzOSwwLDAsMC4wNjE3MjgzOTUwNjE3MjgzOSw1NS41NTU1NTU1NTU1NTU1NSwwKSIvPjx1c2UgeGxpbms6aHJlZj0iI1QiIHRyYW5zZm9ybT0ibWF0cml4KDAuMDYxNzI4Mzk1MDYxNzI4MzksMCwwLDAuMDYxNzI4Mzk1MDYxNzI4MzksNjEuNzI4Mzk1MDYxNzI4MzksMCkiLz48dXNlIHhsaW5rOmhyZWY9IiNRIiB0cmFuc2Zvcm09Im1hdHJpeCgwLjA2MTcyODM5NTA2MTcyODM5LDAsMCwwLjA2MTcyODM5NTA2MTcyODM5LDc0LjA3NDA3NDA3NDA3NDA4LDApIi8+PHVzZSB4bGluazpocmVmPSIjUyIgdHJhbnNmb3JtPSJtYXRyaXgoMC4wNjE3MjgzOTUwNjE3MjgzOSwwLDAsMC4wNjE3MjgzOTUwNjE3MjgzOSw4Ni40MTk3NTMwODY0MTk3NiwwKSIvPjx1c2UgeGxpbms6aHJlZj0iI2F0IiB0cmFuc2Zvcm09Im1hdHJpeCgwLjA2MTcyODM5NTA2MTcyODM5LDAsMCwwLjA2MTcyODM5NTA2MTcyODM5LDkyLjU5MjU5MjU5MjU5MjYsMCkiLz48L2c+PGcgaWQ9InUiPjx1c2UgeGxpbms6aHJlZj0iI1IiIHRyYW5zZm9ybT0ibWF0cml4KDAuMDYxNzI4Mzk1MDYxNzI4MzksMCwwLDAuMDYxNzI4Mzk1MDYxNzI4MzksMCwwKSIvPjx1c2UgeGxpbms6aHJlZj0iI1giIHRyYW5zZm9ybT0ibWF0cml4KDAuMDYxNzI4Mzk1MDYxNzI4MzksMCwwLDAuMDYxNzI4Mzk1MDYxNzI4MzksMTIuMzQ1Njc5MDEyMzQ1Njc5LDApIi8+PHVzZSB4bGluazpocmVmPSIjVyIgdHJhbnNmb3JtPSJtYXRyaXgoMC4wNjE3MjgzOTUwNjE3MjgzOSwwLDAsMC4wNjE3MjgzOTUwNjE3MjgzOSwyNC42OTEzNTgwMjQ2OTEzNTgsMCkiLz48dXNlIHhsaW5rOmhyZWY9IiNTIiB0cmFuc2Zvcm09Im1hdHJpeCgwLjA2MTcyODM5NTA2MTcyODM5LDAsMCwwLjA2MTcyODM5NTA2MTcyODM5LDM3LjAzNzAzNzAzNzAzNzA0LDApIi8+PHVzZSB4bGluazpocmVmPSIjUiIgdHJhbnNmb3JtPSJtYXRyaXgoMC4wNjE3MjgzOTUwNjE3MjgzOSwwLDAsMC4wNjE3MjgzOTUwNjE3MjgzOSw0My4yMDk4NzY1NDMyMDk4OCwwKSIvPjx1c2UgeGxpbms6aHJlZj0iI1kiIHRyYW5zZm9ybT0ibWF0cml4KDAuMDYxNzI4Mzk1MDYxNzI4MzksMCwwLDAuMDYxNzI4Mzk1MDYxNzI4MzksNTUuNTU1NTU1NTU1NTU1NTYsMCkiLz48dXNlIHhsaW5rOmhyZWY9IiNaIiB0cmFuc2Zvcm09Im1hdHJpeCgwLjA2MTcyODM5NTA2MTcyODM5LDAsMCwwLjA2MTcyODM5NTA2MTcyODM5LDY3LjkwMTIzNDU2NzkwMTI0LDApIi8+PHVzZSB4bGluazpocmVmPSIjUyIgdHJhbnNmb3JtPSJtYXRyaXgoMC4wNjE3MjgzOTUwNjE3MjgzOSwwLDAsMC4wNjE3MjgzOTUwNjE3MjgzOSw4MC4yNDY5MTM1ODAyNDY5MywwKSIvPjx1c2UgeGxpbms6aHJlZj0iI1IiIHRyYW5zZm9ybT0ibWF0cml4KDAuMDYxNzI4Mzk1MDYxNzI4MzksMCwwLDAuMDYxNzI4Mzk1MDYxNzI4MzksODYuNDE5NzUzMDg2NDE5NzYsMCkiLz48dXNlIHhsaW5rOmhyZWY9IiNTIiB0cmFuc2Zvcm09Im1hdHJpeCgwLjA2MTcyODM5NTA2MTcyODM5LDAsMCwwLjA2MTcyODM5NTA2MTcyODM5LDk4Ljc2NTQzMjA5ODc2NTQ0LDApIi8+PHVzZSB4bGluazpocmVmPSIjYXMiIHRyYW5zZm9ybT0ibWF0cml4KDAuMDYxNzI4Mzk1MDYxNzI4MzksMCwwLDAuMDYxNzI4Mzk1MDYxNzI4MzksMTA0LjkzODI3MTYwNDkzODI4LDApIi8+PC9nPjxnIGlkPSJ2Ij48dXNlIHhsaW5rOmhyZWY9IiNSIiB0cmFuc2Zvcm09Im1hdHJpeCgwLjA2MTcyODM5NTA2MTcyODM5LDAsMCwwLjA2MTcyODM5NTA2MTcyODM5LDAsMCkiLz48dXNlIHhsaW5rOmhyZWY9IiNRIiB0cmFuc2Zvcm09Im1hdHJpeCgwLjA2MTcyODM5NTA2MTcyODM5LDAsMCwwLjA2MTcyODM5NTA2MTcyODM5LDEyLjM0NTY3OTAxMjM0NTY3OSwwKSIvPjx1c2UgeGxpbms6aHJlZj0iI1MiIHRyYW5zZm9ybT0ibWF0cml4KDAuMDYxNzI4Mzk1MDYxNzI4MzksMCwwLDAuMDYxNzI4Mzk1MDYxNzI4MzksMjQuNjkxMzU4MDI0NjkxMzU4LDApIi8+PHVzZSB4bGluazpocmVmPSIjUiIgdHJhbnNmb3JtPSJtYXRyaXgoMC4wNjE3MjgzOTUwNjE3MjgzOSwwLDAsMC4wNjE3MjgzOTUwNjE3MjgzOSwzMC44NjQxOTc1MzA4NjQxOTYsMCkiLz48dXNlIHhsaW5rOmhyZWY9IiNRIiB0cmFuc2Zvcm09Im1hdHJpeCgwLjA2MTcyODM5NTA2MTcyODM5LDAsMCwwLjA2MTcyODM5NTA2MTcyODM5LDQzLjIwOTg3NjU0MzIwOTg3LDApIi8+PHVzZSB4bGluazpocmVmPSIjUyIgdHJhbnNmb3JtPSJtYXRyaXgoMC4wNjE3MjgzOTUwNjE3MjgzOSwwLDAsMC4wNjE3MjgzOTUwNjE3MjgzOSw1NS41NTU1NTU1NTU1NTU1NSwwKSIvPjx1c2UgeGxpbms6aHJlZj0iI1QiIHRyYW5zZm9ybT0ibWF0cml4KDAuMDYxNzI4Mzk1MDYxNzI4MzksMCwwLDAuMDYxNzI4Mzk1MDYxNzI4MzksNjEuNzI4Mzk1MDYxNzI4MzksMCkiLz48dXNlIHhsaW5rOmhyZWY9IiNRIiB0cmFuc2Zvcm09Im1hdHJpeCgwLjA2MTcyODM5NTA2MTcyODM5LDAsMCwwLjA2MTcyODM5NTA2MTcyODM5LDc0LjA3NDA3NDA3NDA3NDA4LDApIi8+PHVzZSB4bGluazpocmVmPSIjUyIgdHJhbnNmb3JtPSJtYXRyaXgoMC4wNjE3MjgzOTUwNjE3MjgzOSwwLDAsMC4wNjE3MjgzOTUwNjE3MjgzOSw4Ni40MTk3NTMwODY0MTk3NiwwKSIvPjx1c2UgeGxpbms6aHJlZj0iI1kiIHRyYW5zZm9ybT0ibWF0cml4KDAuMDYxNzI4Mzk1MDYxNzI4MzksMCwwLDAuMDYxNzI4Mzk1MDYxNzI4MzksOTIuNTkyNTkyNTkyNTkyNiwwKSIvPjwvZz48ZyBpZD0idyI+PHVzZSB4bGluazpocmVmPSIjTSIgdHJhbnNmb3JtPSJtYXRyaXgoMC4wNjE3MjgzOTUwNjE3MjgzOSwwLDAsMC4wNjE3MjgzOTUwNjE3MjgzOSwwLDApIi8+PHVzZSB4bGluazpocmVmPSIjTiIgdHJhbnNmb3JtPSJtYXRyaXgoMC4wNjE3MjgzOTUwNjE3MjgzOSwwLDAsMC4wNjE3MjgzOTUwNjE3MjgzOSwxMS4xMTExMTExMTExMTExMSwwKSIvPjx1c2UgeGxpbms6aHJlZj0iI08iIHRyYW5zZm9ybT0ibWF0cml4KDAuMDYxNzI4Mzk1MDYxNzI4MzksMCwwLDAuMDYxNzI4Mzk1MDYxNzI4MzksMjkuNTY3OTAxMjM0NTY3OSwwKSIvPjx1c2UgeGxpbms6aHJlZj0iI1AiIHRyYW5zZm9ybT0ibWF0cml4KDAuMDYxNzI4Mzk1MDYxNzI4MzksMCwwLDAuMDYxNzI4Mzk1MDYxNzI4MzksNDEuOTEzNTgwMjQ2OTEzNTc1LDApIi8+PHVzZSB4bGluazpocmVmPSIjUSIgdHJhbnNmb3JtPSJtYXRyaXgoMC4wNjE3MjgzOTUwNjE3MjgzOSwwLDAsMC4wNjE3MjgzOTUwNjE3MjgzOSw0OS4yNTkyNTkyNTkyNTkyNSwwKSIvPjwvZz48cGF0aCBpZD0iYXUiIGQ9Ik0xMzcgMGgtMzRMMi0yNDhoMzVsODMgMjE4IDgzLTIxOGgzNiIvPjxwYXRoIGlkPSJhdiIgZD0iTTI0MCAwbDItMjE4Yy0yMyA3Ni01NCAxNDUtODAgMjE4aC0yM0w1OC0yMTggNTkgMEgzMHYtMjQ4aDQ0bDc3IDIxMWMyMS03NSA1MS0xNDAgNzYtMjExaDQzVjBoLTMwIi8+PGcgaWQ9IngiPjx1c2UgeGxpbms6aHJlZj0iI2F1IiB0cmFuc2Zvcm09Im1hdHJpeCgwLjA2MTcyODM5NTA2MTcyODM5LDAsMCwwLjA2MTcyODM5NTA2MTcyODM5LDAsMCkiLz48dXNlIHhsaW5rOmhyZWY9IiNhdiIgdHJhbnNmb3JtPSJtYXRyaXgoMC4wNjE3MjgzOTUwNjE3MjgzOSwwLDAsMC4wNjE3MjgzOTUwNjE3MjgzOSwxNC44MTQ4MTQ4MTQ4MTQ4MTMsMCkiLz48L2c+PHBhdGggaWQ9ImF3IiBkPSJNMzAgMHYtMjQ4aDMzdjIyMWgxMjVWMEgzMCIvPjxwYXRoIGlkPSJheCIgZD0iTTI0LTIzMXYtMzBoMzJ2MzBIMjR6TTI0IDB2LTE5MGgzMlYwSDI0Ii8+PHBhdGggaWQ9ImF5IiBkPSJNODQgNEMtNSA4IDMwLTExMiAyMy0xOTBoMzJ2MTIwYzAgMzEgNyA1MCAzOSA0OSA3Mi0yIDQ1LTEwMSA1MC0xNjloMzFsMSAxOTBoLTMwYy0xLTEwIDEtMjUtMi0zMy0xMSAyMi0yOCAzNi02MCAzNyIvPjxnIGlkPSJ5Ij48dXNlIHhsaW5rOmhyZWY9IiNhdyIgdHJhbnNmb3JtPSJtYXRyaXgoMC4wNjE3MjgzOTUwNjE3MjgzOSwwLDAsMC4wNjE3MjgzOTUwNjE3MjgzOSwwLDApIi8+PHVzZSB4bGluazpocmVmPSIjYXgiIHRyYW5zZm9ybT0ibWF0cml4KDAuMDYxNzI4Mzk1MDYxNzI4MzksMCwwLDAuMDYxNzI4Mzk1MDYxNzI4MzksMTIuMzQ1Njc5MDEyMzQ1Njc5LDApIi8+PHVzZSB4bGluazpocmVmPSIjYWIiIHRyYW5zZm9ybT0ibWF0cml4KDAuMDYxNzI4Mzk1MDYxNzI4MzksMCwwLDAuMDYxNzI4Mzk1MDYxNzI4MzksMTcuMjIyMjIyMjIyMjIyMjIsMCkiLz48dXNlIHhsaW5rOmhyZWY9IiNheSIgdHJhbnNmb3JtPSJtYXRyaXgoMC4wNjE3MjgzOTUwNjE3MjgzOSwwLDAsMC4wNjE3MjgzOTUwNjE3MjgzOSwyOS41Njc5MDEyMzQ1Njc5LDApIi8+PHVzZSB4bGluazpocmVmPSIjYXIiIHRyYW5zZm9ybT0ibWF0cml4KDAuMDYxNzI4Mzk1MDYxNzI4MzksMCwwLDAuMDYxNzI4Mzk1MDYxNzI4MzksNDEuOTEzNTgwMjQ2OTEzNTc1LDApIi8+PC9nPjxnIGlkPSJ6Ij48dXNlIHhsaW5rOmhyZWY9IiNhdSIgdHJhbnNmb3JtPSJtYXRyaXgoMC4wNjE3MjgzOTUwNjE3MjgzOSwwLDAsMC4wNjE3MjgzOTUwNjE3MjgzOSwwLDApIi8+PHVzZSB4bGluazpocmVmPSIjYXYiIHRyYW5zZm9ybT0ibWF0cml4KDAuMDYxNzI4Mzk1MDYxNzI4MzksMCwwLDAuMDYxNzI4Mzk1MDYxNzI4MzksMTQuODE0ODE0ODE0ODE0ODEzLDApIi8+PC9nPjxnIGlkPSJBIj48dXNlIHhsaW5rOmhyZWY9IiNhdyIgdHJhbnNmb3JtPSJtYXRyaXgoMC4wNjE3MjgzOTUwNjE3MjgzOSwwLDAsMC4wNjE3MjgzOTUwNjE3MjgzOSwwLDApIi8+PHVzZSB4bGluazpocmVmPSIjYXgiIHRyYW5zZm9ybT0ibWF0cml4KDAuMDYxNzI4Mzk1MDYxNzI4MzksMCwwLDAuMDYxNzI4Mzk1MDYxNzI4MzksMTIuMzQ1Njc5MDEyMzQ1Njc5LDApIi8+PHVzZSB4bGluazpocmVmPSIjYWIiIHRyYW5zZm9ybT0ibWF0cml4KDAuMDYxNzI4Mzk1MDYxNzI4MzksMCwwLDAuMDYxNzI4Mzk1MDYxNzI4MzksMTcuMjIyMjIyMjIyMjIyMjIsMCkiLz48dXNlIHhsaW5rOmhyZWY9IiNheSIgdHJhbnNmb3JtPSJtYXRyaXgoMC4wNjE3MjgzOTUwNjE3MjgzOSwwLDAsMC4wNjE3MjgzOTUwNjE3MjgzOSwyOS41Njc5MDEyMzQ1Njc5LDApIi8+PHVzZSB4bGluazpocmVmPSIjYXIiIHRyYW5zZm9ybT0ibWF0cml4KDAuMDYxNzI4Mzk1MDYxNzI4MzksMCwwLDAuMDYxNzI4Mzk1MDYxNzI4MzksNDEuOTEzNTgwMjQ2OTEzNTc1LDApIi8+PC9nPjwvZGVmcz48L2c+PC9zdmc+;" vertex="1" parent="1">
          <mxGeometry width="1200" height="547" as="geometry" />
        </mxCell>
      </root>
    </mxGraphModel>
  </diagram>
</mxfile>
